<svg xmlns="http://www.w3.org/2000/svg" xmlns:xlink="http://www.w3.org/1999/xlink" width="38.418" height="51.05" viewBox="0 0 38.418 51.05">
  <defs>
    <rect id="rect-1" width="38.418" height="51.05" x="0" y="0"/>
    <mask id="mask-2" maskContentUnits="userSpaceOnUse" maskUnits="userSpaceOnUse">
      <rect width="38.418" height="51.05" x="0" y="0" fill="black"/>
      <use fill="white" xlink:href="#rect-1"/>
    </mask>
  </defs>
  <g>
    <use fill="none" xlink:href="#rect-1"/>
    <g mask="url(#mask-2)">
      <path fill="rgb(255,255,255)" fill-rule="evenodd" d="M3.52111816 18.63712227c.03149414-.08093262.5501709-1.42614746.64453125-1.6854248.15722657-.40515137.44018555-.72924805.80175782-.93994141v-3.71118164h-.09436036c-.9588623 0-1.8548584-.38903809-2.53088378-1.08581543-.67590332-.69689942-1.05322266-1.62060547-1.05322266-2.60925293 0-2.0419922 1.60339355-3.6949463 3.58410644-3.6949463h11.23937989c.17297363 0 .33007812.01611329.48730469.03234864l.29870605-2.75500488C17.02416992.93997872 18.04589844.0000373 19.25634766.0000373h4.84155273c1.21044922 0 2.23217774.9399414 2.3894043 2.17163086l.44006347 4.18115234c1.33618164.37280273 2.31079102 1.63684082 2.31079102 3.12780762v2.7064209c5.28173828.98864746 9.19592285 5.7532959 9.19592285 11.3605957v22.8831787c0 2.54431153-2.01208496 4.61877442-4.48010254 4.61877442h-20.8125c-.04711914 0-.09436035-.01623535-.12573242-.01623535H2.68798828c-.69165039 0-1.28894043-.51855469-1.41467285-1.2154541l-.50305176-2.78747559C0 42.73575508-.2043457 38.36014473.17297363 34.00064766l.03137207-.32409668c.28295899-3.24133301.83312989-6.4987793 1.6505127-9.65893555.45593262-1.81506348 1.02185058-3.63012695 1.66625976-5.38049316zM24.0979004 1.53958809h-4.84155273c-.45593262 0-.83312989.35656738-.83312989.84277343l-.3302002 3.1439209c.40869141.25927735.75451661.61584473 1.0374756 1.03723145h.83312988c.5345459 0 1.03747558.21069336 1.41479492.59960937.25146484.25927735.42443848.5834961.51879883.92382813.04711914.1619873.0628662.35644531.0628662.53479004 0 .06481933-.01574706.11340332-.01574706.17822265-.04711914.45373536-.22009278.87512207-.51879883 1.2154541-.39294434.43762208-.92736816.68066407-1.49328613.68066407h-.83312989c-.17297363.2755127-.3930664.51855469-.64453125.7454834-.51867675.45373535-1.14746093.7454834-1.80773925.84277343-.17285157.01611329-.3458252.03234864-.51867676.03234864h-3.56835938v3.72741699c.15722657.12963867.25146485.32409668.26721192.53479004.22009277.32421875.33007812.71313476.31445312 1.10205078-.0628662 1.60437012-.11010742 2.7064209-.11010742 2.9333496 0 2.43090821.48730469 4.79699708 1.430542 7.03344727l2.8765869 6.80664063c.59741212 1.39367676.95886231 2.88464355 1.0847168 4.37561035h10.42199707V24.5038215c0-1.18310547-.92749023-2.13928223-2.07507324-2.13928223h-2.04345703c-.42443848 0-.7545166-.35656738-.7545166-.77783203 0-.43762207.3458252-.7779541.7545166-.7779541h2.04345703c1.96496582 0 3.56835938 1.65307617 3.56835938 3.678833v15.10412598c0 .43762207-.3458252.7779541-.7545166.7779541H18.4703369c-.03149414 1.32885742-.25146484 2.6739502-.64453125 3.95422364l-1.60339355 5.1697998h17.74731445c1.63476563 0 2.97094727-1.3774414 2.97094727-3.06298828v-22.899292c0-5.05639648-3.66259766-9.30236816-8.50427246-9.91821288h-6.28771973c-.42443848 0-.7545166-.35656739-.7545166-.77783204 0-.43762207.3458252-.7779541.7545166-.7779541h5.58044434V9.46439277c0-.89135742-.6760254-1.63684082-1.54052735-1.6854248-.37731933-.01623535-.66027832-.30786133-.70739746-.68066406l-.50305176-4.74841309c-.04711914-.4699707-.42443847-.81030273-.88024902-.81030273zM3.39538574 10.12894356c.3930664.40515136.92749024.631958 1.47766113.631958h.84887696c.42443847 0 .7545166.35656739.7545166.7779541v4.24597169l1.99633789.01623535h2.57800293V11.5226203c0-.4375.3458252-.77783203.7545166-.77783203h4.3071289c.09436036 0 .20434571 0 .29870606-.01623535.39294434-.04858398.7545166-.22692871 1.05322266-.48620605.2199707-.19445801.39294433-.42138672.51867676-.68066407.12573242-.25927734.39294433-.42138671.67590332-.42138671h1.25756836c.14147949 0 .28295898-.06481934.37731933-.17822266.04711914-.06481934.10998535-.16210938.12573242-.30786133v-.04870605c0-.03234864 0-.0810547-.01574707-.12963868-.015625-.09716796-.0628662-.17822265-.12573242-.24304199-.09436035-.11352539-.22009277-.16210937-.36157226-.16210937h-1.25756836c-.28295899 0-.5501709-.1619873-.67590332-.42138672-.03137207-.08093262-.06286621-.14587403-.10998535-.21069336-.23583985-.35644531-.5501709-.64819336-.92749024-.81030274-.26721191-.11340332-.5501709-.17822265-.83312988-.17822265H4.87304687c-1.147583 0-2.09069824.9724121-2.09069824 2.1553955 0 .5834961.22009278 1.11828614.61303711 1.5234375zM2.2635498 46.75492012c-.7545166-4.16503906-.94311523-8.41101074-.58154296-12.62463379l.03137207-.32409668c.26721191-3.16027832.8017578-6.33666992 1.60339355-9.3996582.45593262-1.7664795 1.00610352-3.53295899 1.6348877-5.23461914.015625-.04858399.23571777-.63195801.62878418-1.66918946.03137207-.08105468.09423828-.12963867.17285156-.14587402h2.7352295l3.0180664.01623535c.01574707 0 .03149414 0 .03149414.01623535l.03137207.03234864c.03149414.0324707.07861328.09729003.07861328.194458-.04711914.97241211-.10998535 2.65783692-.10998535 2.99816895 0 2.65783691.51867676 5.23461914 1.55615234 7.66552734l2.82958984 6.69311524.04711915.11352539c1.17895507 2.77124023 1.33618164 5.89904785.44018554 8.7836914L14.66625977 49.509925H2.75085449l-.48730469-2.75500488z"/>
      <path fill="rgb(255,255,255)" fill-rule="evenodd" d="M7.92260742 24.63333809c.03137207.51867676 1.17895508 2.7064209 2.09069824 4.47290039 1.63476563 3.14404297 3.48962403 6.70947265 3.77258301 8.83239746.4699707 3.5477295-.97521972 7.48730469-1.13513183 7.92346191l-.0123291.03381348c-.11010743.29174805-.37731934.48620605-.6916504.48620605H6.3034668c-.3458252 0-.64453125-.24316406-.72314453-.58349609-1.49328614-6.01245117-1.17895508-11.50634766-.64440918-15.055542.58154296-3.85705566 1.5090332-6.2717285 1.54052734-6.36901855.12573242-.32409668.47155762-.53479004.81738281-.4699707.3458252.06481934.61303711.37280273.62878418.72924805zM6.90087891 44.85880195h4.52722168c.37719726-1.15063476 1.22607421-4.10021972.88024902-6.67700195-.25146484-1.87988281-2.12207031-5.46142578-3.61547852-8.3461914-.59729004-1.15063477-1.08459472-2.07434083-1.44616699-2.83605958-.28295898 1.0209961-.59729004 2.41467286-.83312988 4.05151368-.47155762 3.27368164-.77026367 8.29760742.48730469 13.80773925z"/>
    </g>
  </g>
</svg>
