<svg xmlns="http://www.w3.org/2000/svg" width="92.921" height="18" viewBox="0 0 92.921 18">
  <g>
    <path fill="rgb(236,156,63)" fill-rule="evenodd" d="M78.40984344.07201385h12.80377198c.43418884 0 .81048584.13798523 1.10960388.45201874.1688385.17129517.3618164.323555.44865417.5614624.07237244.18556214.1495514.36161805.1495514.56621552V16.2734375c0 .42823029-.1495514.79460907-.47277832 1.08961487-.17849732.16653442-.33288575.3568573-.5692749.44250488-.17849732.06661224-.35699464.13322449-.54997254.13322449H65.57230377c-.43418884 0-.81048584-.13798523-1.10960388-.45201874-.16884613-.17129517-.36182404-.323555-.4486618-.5614624-.07236481-.18556977-.1495514-.36161804-.1495514-.56621552V1.7373581c0-.42823028.1495514-.79460907.47278595-1.08961486.16885376-.15701294.31840516-.33306885.54515076-.4282303.20744324-.08088683.4100647-.15225982.63198853-.15225982h7.4439392c1.81877137.00476074 3.63754273.00476074 5.45149231.00476074zM89.35623932 6.2290268c.01448059-.05234527.04824829-.09992218.07237244-.14274597h1.18678283c-.0192871.28548432-.10614013.55670166-.17367553.83267212-.0675354.2807312-.1495514.55670166-.21226502.83743286-.06271362.2807312-.1254425.56145478-.20744324.83742524-.08201599.2664566-.1254425.5471878-.18815612.81840515-.0675354.28072357-.13990784.55669403-.20744324.83742523-.0675354.2807312-.10614014.56621551-.21228028.83267212H88.130867c.02412415-.14273834.02894593-.28548432.07237244-.4139557.18814087-.5804901.31356812-1.18001555.46795654-1.77001952.1157837-.42823792.2267456-.86122132.32322693-1.29897309.05307007-.24266052.13508606-.48056793.19779969-.72323608.05789184-.21411133.1109619-.43299103.16401672-.64710236zm-9.02149963.0904007c.01448059-.0428238.05307006-.0761261.08201599-.11418915.16981506 0 .33964538-.0013504.50946045-.00270843.46699523-.00372315.93397522-.0074463 1.40097045.01698303.3232422.0142746.65611268.0475769.96969605.13798523.42454529.12371063.79119873.33782196.97451782.82791138v.6518631c0 .26169586-.13026428.47581481-.26533508.69468688-.1929779.31879425-.51620484.47105408-.81532288.64710236-.17367553.10468292-.38594055.18081665-.61268615.1903305-.0619812.00218201-.12193299.01638794-.18217469.03066254-.07112121.0168457-.14256286.0337677-.21824646.03118897-.0835266-.00274659-.1654663.01194763-.24777221.0267105-.06015015.0107956-.12043763.02161408-.18159485.02563477-.09324646.00634003-.18864441.00421906-.2839203.00210572-.0471649-.0010605-.09416198-.00210572-.14060973-.00210572h-.41972351c-.13508606.51387787-.23638916 1.03250885-.376297 1.5416336h-1.3556366c.02412415-.14274596.02412415-.29025268.07237244-.41396331.08200073-.20935821.10612488-.4329834.17367554-.64234161.0675354-.2046051.13024902-.40920258.16401672-.6185608.03860474-.21887206.09649658-.43774413.15438843-.6518631.08200073-.3140335.15437317-.63282775.23156738-.94686889l.2605133-1.05630493c.0337677-.12846375.0675354-.25217438.10612489-.37589264zM68.1002426 9.49310303c.17825318-.0212555.35255433-.01581574.52372742-.01047516.2494049.00779724.49099732.01535034.7257843-.06089783.22938538.02308655.44511414-.04792023.65623474-.11740875l.01916504-.00630188c.32804871-.09992218.63198853-.24266815.88768006-.47105408.27497864-.24742126.49690246-.53766632.54997253-.9040451.0337677-.22839356.05307007-.47581482-.00482178-.6946869-.11578369-.44726562-.41007995-.67089843-.88285827-.85646056-.31358338-.12371064-.6512909-.0570984-.95521546-.17129517h-2.0358734l-.082016.08088684c-.0337677.10468292-.01446533.21411896-.06271362.32831574-.07717896.18556213-.05307007.4187088-.14472962.5947647-.06271362.12846375-.03858948.25693512-.08201599.38064576-.11578369.34259033-.1833191.69944763-.27015686 1.05155182-.01930237.07136535-.04341125.14273834-.05789185.21411132-.01446533.07137299-.00964355.14274598-.03858947.22363282-.08683777.252182-.16885376.51387787-.19779969.78033447-.0337677.3092804-.17849731.5947647-.1929779.9040451-.07324219.06463623-.06332398.13533783-.0539093.2024231.00236511.0168686.0046997.03350067.00567627.04975891h1.341156c.12542725-.50436401.23638916-1.00872803.35217285-1.51784515zm20.04026795-1.57969666c-.15437317-.28548431-.37147522-.44726562-.670578-.52339172-.21226502-.05709839-.42936707-.09516144-.64645386-.10943604-.28945923-.01903534-.5837555-.0142746-.8780365 0-.27981567.00951386-.55479431.06661225-.8297882.10943604-.13990785.0190277-.2653351.0475769-.3666382.15701294.01451112.13354492-.01945495.26350403-.05451965.39766693-.0349121.13352966-.07089233.27120972-.06126403.42073822.21708679-.05709839.40524292-.10944367.59338379-.15702057.1254425-.03330994.25569152-.09516144.38111877-.09516144.10340881.00139618.20765686-.00376892.31065369-.00888061.24777221-.01228333.48834228-.02420807.69281006.05645752.11578369.09516143.18815612.1617813.2605133.21887207-.00964355.15702057-.00964355.15702057-.09648132.25694275-.10203552.01078033-.20269776.01002502-.30316162.00926971-.16525269-.00125122-.3296051-.00249481-.49768067.04782867-.16403198.0475769-.3425293.0285492-.5210266.0570984-.36183167.05709838-.69470216.16653442-1.00828553.3425827-.38111878.20935821-.58856201.53766632-.6030426.96590423-.00344849.12588501.0128479.25421143.02775573.37158966.00590515.04636383.01156617.09090424.01567078.13276673.09165955.09040832.15919495.15225982.22190857.2188797.12062073.12371063.25569153.20935058.43418884.26169586.13200379.0411148.25646973.0378189.38076782.03453064.04826355-.00128174.09649659-.00255585.14509583-.00122834.42936706.01903534.79118347-.15701293 1.13853455-.38540649.02894592-.01903534.06271362-.01903534.13026428-.03806305-.082016.1189499-.09649658.21411133-.04342652.30927277h1.15301514c.02894592-.02854157.07719421-.05233765.082016-.08563996.02894591-.27121734.12060546-.52815246.18815612-.78509521.09165955-.3425827.17367554-.68517304.26533508-1.022995.01239014-.04525756.02531433-.09040832.03825379-.1355667.07276916-.25411988.14552307-.50816346.12094116-.782753-.00315857-.0497284-.00216675-.09945679-.0011139-.15299225.00054932-.02744293.0011139-.05562591.0011139-.08491516zm-14.87823486.73274994h.50172424c.14489746-.11768341.09402466-.23165893.05358887-.32226562-.00532532-.01195527-.0104828-.02349854-.01498413-.03459168-.17860413-.17613983-.38452149-.17377472-.58900452-.17142486-.0387268.0004425-.07714844.000885-.11535645.0001297-.02108764 0-.04217529.00107574-.06307983.00214386-.04125977.0021057-.08181763.00417327-.12023926-.00214386-.22595215-.03039551-.4397583.02548217-.6518402.08091735-.0867157.02266693-.17314149.04525757-.259964.06182862-.06271362.00951385-.13024902.0190277-.1929779.03806305-.05305481.0142746-.1013031.04282379-.15437317.06661224-.06484986-.09059143-.03283692-.17372894-.00144959-.25528717.0246582-.06409454.04891968-.12712097.02557373-.19197846.06098938-.05783844.06152344-.13254547.06207276-.2071762.00056457-.07885743.00112915-.1576233.0730133-.21629334.09648133-.07613373.21226502-.09516144.3425293-.09516144.1013031-.00476074.20744324-.03807068.30874634-.05709839.0304718-.0063324.06202698-.00476837.09388733-.00318145.0636444.00317383.12800598.0063858.18592834-.05391693.013443-.01657105.05497742-.01236725.09524536-.00828553.01754761.00177002.03485108.00352478.04948426.00352478.09501648 0 .19044494-.0020523.28591919-.00411224.229599-.00493622.45909118-.00987244.68377685.01363373.294281.0333023.59820557.05709076.87319946.22362518.25086975.15702057.40042115.33307648.40524292.64234924.0032196.20936585-.04074096.40604401-.08470153.60272217-.02197266.09832764-.04394532.19665528-.06002808.29656983-.01930237.11418914-.07719421.22838592-.10614014.3425827-.02894592.11894989-.0337677.24266052-.06271362.36161804-.05789185.26169586-.12542725.52339172-.1929779.78508759-.03858948.14274597-.08683777.2807312-.13024903.42823028h-1.23020935c.04342651-.09991455.05789185-.19507599.02894592-.30451965-.13990783.07137298-.27015686.12371063-.38594055.19984436-.40042114.26169586-.84909057.24742126-1.29774475.22363281-.1157837-.00951385-.25086975-.05709839-.33770752-.12847137-.13990784-.11419678-.27981567-.23790741-.37147522-.40919495-.06271362-.11895752-.07717895-.2331543-.08201599-.35686493-.00964355-.18556213.01930237-.36161804.08683777-.53290558.10614014-.27597046.32806396-.44250488.55963135-.59477234.21708679-.14273834.72846984-.2854843.99380493-.2997589.04974365-.00204468.09591675-.0181427.1423645-.03432465.06166077-.021492.12379456-.04314423.19534302-.0322876.1013031.0142746.21226501.0285492.3087616-.05233765.02021789-.01662445.06163024-.01234436.10119628-.008255.01707459.00176239.03381348.00349426.0483551.00349426zm2.04551696-1.25138855c0 .03191376-.00120544.06145477-.0023346.08924866-.00207519.0509491-.00390624.09603882.0023346.1391449.00964356.07136535.05307007.14273834.05789185.21411132.00427246.1221695.03407288.24060822.06385803.35903931.03752136.14911652.0750122.29816437.06156922.4546051.13026428.23789978.06271362.51863098.18333435.76129914-.02911377.08613586-.0019989.16188049.02513122.23770904.01783753.04980469.03567505.09963227.0375824.1524582.00210571.03533172.00306702.07157134.00402832.10802459.00343323.13045502.006958.26365662.06350708.3677826.03448486.06559753.03250122.13367461.03063965.19726562-.00178528.06095123-.00343323.1177826.0272522.16435241.0539093.07975007.04832458.15583802.04325866.22483826-.00308227.04221344-.00596618.08168793.00498963.11775208-.33770752.45201873-.66093445.88500976-1.00346375 1.34178924h1.50036621c1.0613556-1.56542206 2.12753296-3.14511871 3.19371033-4.724823.0337677-.05233764.04341125-.11419677.07717895-.20459747h-1.24949646c-.49208068.77082062-.97451782 1.51784516-1.45211792 2.26963043-.0337677-.03330993-.05789184-.06185913-.08683776-.09040832-.00482178-.27120972-.0482483-.54242706-.12060547-.80888367-.03860474-.13322449-.00965882-.28072357-.05307007-.42346954-.04342652-.13798523-.04342652-.29976654-.06271362-.45202637-.01930237-.17128754-.04342652-.33306885-.09649659-.49484253h-1.24949646z"/>
    <path fill="rgb(236,156,63)" fill-rule="evenodd" d="M14.49710846 17.934021H1.69333649c-.43418885 0-.80565644-.14749909-1.10476685-.4615326-.15920257-.16653442-.3377037-.3092804-.43419266-.53767395C.07236481 16.73021698 0 16.53513336 0 16.31150818V1.75163269C0 1.3234024.14472961.95702362.45831299.65726471.6416397.4812088.81048584.29088593 1.0517044.2004776c.01766205-.00646973.0353241-.01304626.05300903-.0196228.15132904-.05632782.30387115-.11310578.46801758-.10884095h25.78604126c.43419647 0 .80566406.14749909 1.10477447.4615326.15920258.16653442.33770752.3092804.43418885.53767395.08201599.20459747.1543808.39968109.1543808.6233139V16.2544098c0 .42823029-.13990784.79460144-.458313 1.09436798-.1784973.16653442-.3328781.35210419-.56926727.44250488-.19779968.07613373-.39076996.14749909-.6030426.14749909h-4.87257385c-2.68232727-.00476074-5.36465454-.00476074-8.05181122-.00476074zm2.63890839-11.13401795c.13508606-.09992218.25086975-.24742126.40042114-.29024505.03708649-.01089478.07416534-.0224228.11135864-.03398896.1902008-.05914306.38316345-.11914062.5929947-.09923553.22192382.0190277.4486618.00951385.67058562.05709076.27980805.05709839.55479431.10468292.82013703.20935821.09165954.03807068.1881485.06661988.28945923.09992218.09648132-.54242706.19779205-1.06581878.27015686-1.59397125-.06271363-.03330994-.10131073-.06185913-.1495514-.07613373-.11096191-.02854156-.2267456-.03806305-.32805633-.08088684-.25086212-.09992218-.52102661-.14749908-.78153992-.14749908-.0827179-.0016327-.16557312-.00395966-.24858093-.00629425-.4010849-.01128388-.80548096-.0226593-1.21318817.0443573-.35700226.06185913-.70435333.14750671-1.03723145.2807312-.58374786.23314667-1.05653381.6233139-1.37010956 1.16574096-.0723648.12371064-.10131073.27597046-.1543808.4139557-.07393646.1904068-.06742858.38771056-.0608902.5860672.00113679.0345993.0022812.06923675.00299836.10386657.00482178.19983673.06271362.3854065.1543808.56145477.19779205.39016724.52584839.65662384.88285065.88977051.30393219.19984436.6368103.3568573.96486663.50911713.31840516.14750671.60786438.32831573.83943177.59952545v.38065338c-.082016.0904007-.17367554.20459747-.28463745.2950058-.12060547.09516144-.65128327.23789978-.80566407.24266052-.04645538 0-.09344482.00105286-.14060974.00210571-.09503937.00211335-.19055176.00424195-.28392792-.0021057-.13507843-.00951386-.26533508-.03806306-.40042114-.0570984-.16402435-.02378845-.33769989-.0142746-.4824295-.07137298-.25086975-.1046753-.52585602-.14273835-.7574234-.28548432-.09648896-.06185913-.19297028-.08088684-.294281-.03806305-.02412415.18556214-.01447297.38064576-.07719422.54242707-.07236481.18080902-.0337677.3711319-.10131073.55194091-.06271363.16177369-.05306244.35209656-.07718659.55670166.40524292.09992218.79601288.21887207 1.19161225.2807312.04335022.00733185.08701324.01591492.1309204.02454377.12711335.02498626.25618744.05036163.3852768.0468216.1282959-.00315858.2544632-.00211335.38132477-.00106812l.0005188.00000763c.06378937.00052642.12774658.00106048.19225311.00106048h.6030426c.01454163 0 .0312729.00173187.04834748.00349426.03957367.00408936.08098602.00836945.10120391-.00824737.07469178-.06002808.15731049-.05903626.24062348-.0580368.06195831.00074768.12425232.00150299.18392181-.02285004.13025666-.05234528.27980805-.05234528.4100647-.09992218.2267456-.08088684.46313477-.15225983.67058563-.27121735.16402435-.09516144.32322693-.20459747.47760773-.3140335.27016449-.19032288.47278595-.4282303.61268616-.7089615.13990783-.27597045.2749939-.55670165.24604797-.88025665-.00965118-.0904007-.0048294-.18080902 0-.26644897.01929474-.38065338-.1543808-.6804123-.35700226-.98969269-.11096191-.17129516-.27498627-.26169586-.4148941-.39016723-.24604035-.22363282-.54032135-.39016724-.83943177-.51863862-.59822082-.25693512-.85873413-.38540649-1.23020935-.75178527.01447297-.10943604.01447297-.22838593.01447297-.3854065zM1.85736847 5.00619507c.01447296-.01903534.02412414-.03330994.0385971-.05234528.74777222 0 1.49071503 0 2.25296021-.00475311.13954926 0 .27963257.00052643.42007446.00105286.2819519.00106048.56533814.00212097.84872437-.00105286.35700226-.00476074.78636932.24742126.83460998.69468689.01929474.16177368.06754303.3283081.12060547.48532867.0482483.14749909.01930237.31879425.1157837.45677948-.00317383.2252655.0541458.44024659.1116104.65576172.0299225.11223603.05989075.22462464.0813675.33868408.07718658.39016724.14472961.78984833.26533508 1.17050171.01184845.03308106.00108338.05342865-.00951385.07344818-.01528168.028862-.03016663.05698395.02398681.12163544-.00482177-.00238037.00602723.00476074.02230835.01546478.01628113.01070404.03799439.02497864.05487824.03687287 0 .03988647-.00401306.07978058-.00783539.1177597-.00802612.07979584-.01519775.15114594.01748657.19628144.0457077.06912231.04521942.13445282.04473877.1984024-.00027466.0373993-.00054168.07413483.0083313.11087036.01929474.09040833.05306244.17605591.08200836.2664566.1206131-.2950058.25086975-.58525085.36182404-.88500976.16403198-.44726562.35700226-.88500977.5306778-1.33227539.13508605-.35210419.28945922-.69944763.42936706-1.04679108.17850494-.44250488.3811264-.8754959.5306778-1.33227539.0385971-.10943603.10131073-.21411896.15920257-.3283081h2.2191925c-.09166717.20459747-.17367553.39016723-.2605133.57097625-.09166718.195076-.1881485.38064576-.25086975.58524323-.06271362.2046051-.20262146.37589264-.24121094.5900116-.01447296.08564758-.06754303.17129516-.12543487.24266052-.14472962.1903305-.21227265.41396332-.28463746.62807464-.0723648.20935822-.20262145.39016724-.26533508.60903931-.05789184.19508362-.18332672.38065338-.26534271.575737-.21226502.49960327-.43901062.9944458-.66092682 1.48929596-.13025665.29024506-.26534271.58525085-.39077759.88024902-.15437317.36161805-.31357574.72323609-.48725128 1.08009339-.01930237.04282379-.05307007.08089447-.07719421.11895752H5.9484024c-.0385971-.09516144-.10131073-.19984436-.12543487-.31403351-.05789185-.252182-.1495514-.49485016-.21227264-.74703217-.0675354-.26644897-.14472962-.53766632-.21709443-.80412292-.07718658-.29499817-.1399002-.59476471-.24604034-.88024903-.09165955-.252182-.12060547-.52339935-.23156738-.77082061-.07236481-.16177368-.082016-.3425827-.13025666-.51387787-.04341888-.16653443-.11578369-.3283081-.1543808-.49960327-.05789184-.24266053-.1447296-.47581482-.20744323-.71847534-.06271362-.24266816-.1061325-.49485016-.19297028-.72799683-.02894592-.0761261-.0385971-.14749909-.05307007-.21887207-.01447296-.06661225-.05307006-.13322449-.08201599-.21411896-.10131073-.0475769-.21709442-.10943603-.33769989-.16177368-.17850494-.08088684-.36182403-.15702057-.54032898-.23314667-.16884613-.07137298-.33769989-.15225982-.5161972-.20935821-.1881485-.06185913-.3811264-.09516144-.55962372-.18556977-.02185059-.00957489-.04981232-.00589752-.07711792-.00230407-.0269928.00354766-.0532837.00699615-.0724411-.00244904-.05306244-.0285492-.09165955-.08089447-.13507843-.12371063zm23.51378632-.05234528c-.20500184 0-.40615845-.00054168-.60495759-.00107574h-.00138092c-.39019775-.00105286-.7713089-.00208283-1.15454101.00107574-.39076996.00475312-.68022919.18080902-.84426117.52815247-.20744324.44250488-.40042114.8897705-.60786438 1.32751465-.13025665.28548431-.3039322.55194091-.40524292.84694671-.08683777.24742127-.22192383.46629334-.31358337.70896149-.09165955.24266815-.20262146.47105408-.30875397.70896149-.11096192.24266052-.25569153.47105407-.34735108.72323608-.16403198.44250488-.39076995.85170746-.56445312 1.2894516-.1157837.2807312-.2556839.55194092-.38111878.82791138-.05789184.13323211-.11096191.2664566-.17367553.41396331h2.21437072c.14472962-.39016723.27980805-.75654602.4100647-1.10864257h2.58101654c.0337677.18080139.05789185.34733581.09648896.51387024.03858947.17129516.08200836.34259033.13507843.54242706.00482177.00476074.02894592.03330994.04341888.04758453h1.93455505c-.01929474-.08564758-.0337677-.16177368-.04824066-.23314667-.02894592-.11895751-.06271362-.23314666-.08201599-.35210418-.04341888-.24742127-.1157837-.49008942-.16884613-.73274994-.0385971-.18080902-.11096191-.36161804-.13025665-.54242706-.00820923-.10523224-.03823853-.2061615-.06817627-.30680848-.04046631-.13600158-.0807724-.27149963-.0669098-.4164276-.13507842-.2807312-.12543487-.59952546-.23638915-.88500977-.05789185-.14750672-.06754303-.3092804-.10131073-.46630097-.00988007-.04594421-.02348328-.09107971-.03705597-.1361084-.03281403-.10889434-.06543732-.21715545-.04496002-.33494568-.1543808-.35209655-.16402436-.73751068-.28945923-1.09912872-.05789185-.17128753-.082016-.36161804-.12543488-.54242706-.04341888-.19032288-.09165954-.38064575-.12060547-.57572937-.00738525-.04919434-.02114105-.0969925-.03503418-.14526367-.02239227-.07778931-.0451355-.15681458-.0421524-.24490357 0-.11419678-.0723648-.22839355-.11096191-.3568573zm-12.59632111 7.38462067h-1.88149262c.02412415-.2188797.00965119-.43299103.07718659-.6185608.04341888-.11894988.00965118-.23314666.05307007-.33306884.04341888-.1046753.02894592-.20935822.05789184-.30451965.07718659-.26169586.06271363-.53766632.16402436-.79460907.02009582-.05349732.01926422-.11195374.01843261-.1712265-.00117492-.08306885-.00237274-.16776276.0539322-.2427292-.00332642-.209877.03918456-.41523742.08171844-.62075042.01918793-.09266662.03837585-.1853714.05336761-.27853393.04824066-.2807312.06271363-.575737.16402436-.85170746.04341888-.1189499.00965118-.25693512.06272125-.39016724.04824066-.12846374.05789184-.27597046.06271362-.41871643.00195313-.05970001.01970673-.1162796.03727722-.1722641.02584076-.08234405.0512848-.16340637.0254364-.25120544.10614014-.27597046.07719422-.57097626.17367554-.85170746.05789185-.16653443.04341889-.3568573.06754303-.53766632.01928711-.15218354.05303192-.29961395.08678436-.48505402.00386048-.00276184.03444672-.02824402.07241822-.05737305h2.01174926c-.01930236.21411896-.01447296.42823029-.0723648.6233139-.02894593.09992219 0 .20459748-.0482483.27597047-.04450988.06417083-.04771423.12834167-.05099487.19420624-.00134277.02693176-.00269317.0541458-.00689697.08176422-.00965118.09040832-.0385971.18080902-.05789185.27121734-.01447296.08088684-.00482177.15702057-.04824066.24742127-.02297973.04738617-.02243805.1036911-.0218811.16196441.0007248.0763092.00148773.15599823-.0504837.22344208.03396606.12394714.00096893.24317932-.03163147.36101532-.01371003.04953003-.02734375.09882355-.03591156.14810944-.05307007.29499817-.06754303.59951782-.16402436.88500976-.0385971.12371064-.0048294.25693512-.05789184.39016724-.06272125.16653442-.0482483.3568573-.07236481.53766632-.00965118.07137299-.04341888.14274597-.05789185.21411896-.00505828.02661133-.00598907.05205536-.00691986.07735443-.00172424.047081-.00343322.09365845-.03167724.14627838-.03043366.05573273-.02952576.12016296-.02861023.18545532.00112152.07962036.0022583.16052246-.05340576.22850037.00332641.20986175-.03917694.41521454-.08171082.62071228-.0191803.09268188-.03837585.18539429-.05336761.27857208-.04824067.2807312-.05307007.575737-.16402436.85170746-.0235672.05976868-.01659393.13111114-.01023101.19625854.00276184.0282135.0054016.05526734.0054016.07971192-.05207824.10273743-.1314926.10149383-.21364593.1002121-.0091629-.00014496-.01836395-.00028992-.027565-.00028992z"/>
    <path fill="rgb(236,156,63)" fill-rule="evenodd" d="M32.9935913.2480545c.01447297-.0190277.03377534-.05233764.0434189-.05233764.03377532.00476074.06754302.0285492.1109619.04282379l.05307008-.1046753c.01447296.0142746.02894592.0285492.05789184.05233765.04341889-.03806305.09165955-.07613373.1495514-.12371063.02894592.01902771.06271362.03806305.09648895.05709839.0337677-.0142746.07718658-.03807068.11578369-.0428238.04129028-.004364.08258056-.00383758.12373352-.00331115.09348297.00119019.18624878.00237274.27668762-.05378723.04341888-.0285492.13025665-.02378845.17849731 0 .13033295.06977844.26641846.0630188.40158844.05630493.03994751-.00198364.07981873-.00396728.11943817-.00396728q4.34189606.0071411 8.68379212 0c.02737427 0 .05592346.00347137.0848465.00699615.0883255.01074982.18017578.02192688.25286102-.06409454.00321197-.0031662.0107193-.00211335.018219-.00105286.00375366.00052643.00750732.00105286.01072692.00105286.0442276.00484466.08956146.02011108.13488007.0353775.08815002.02968597.17623138.05934906.25588989.01220703.09043884-.05286407.17623138-.04837799.26221466-.04387665.03793335.00198365.07578278.00395966.11408234.00105286.0269928-.00332642.05633545.01428223.08804321.03331757.01363373.0081787.02770233.01662445.04221344.02378082.20262146-.09040833.41007233-.09516144.61269379 0 .19297027-.09992218.39076996-.07137299.62715912-.0142746.01447296-.00476074.06271362-.03330994.11578369-.0428238.04335785-.00712585.08940887-.00624847.13615417-.00535583.01567078.00029755.03142548.0005951.04717255.0005951h13.51294708l.1157837.11419677c.01929473-.01903534.04341888-.03330993.06754302-.05709838.30875397.09040832.6030426.2236328.82978058.46154022.25086975.2664566.40042114.58049011.47760773.93734741.0385971.18556976.05307007.36161804.05307007.54242706 0 1.03504181.00030517 2.06978607.00060272 3.10438538.0009079 3.10318756.00180816 6.2050476-.0054245 9.30957794 0 .19910431.00456238.39820862.0091095.59680939.01296234.56552124.0258255 1.12698364-.06700135 1.67281341-.12060547.22363282-.20745086.43775177-.35218048.62807465-.11095428.13798523-.21227264.27120972-.37146759.3425827-.1543808.06661225-.26534271.19508362-.45349121.22363281-.16402435.0285492-.33287811.06185914-.49690247.10468293-.01896667.00623321-.03794097.00429535-.05826568.00222015-.01069641-.001091-.02175903-.00222015-.0334015-.00222015H33.63040162l-.11578369-.11419678c-.01929474.0142746-.03858948.03330994-.06271362.0475769-.54032135-.09516143-.9069748-.44250488-1.18678284-.87548828-.09166718-.13798523-.14955902-.31404114-.1881485-.49008941-.06350708-.2726593-.0575943-.54245758-.05168915-.811615.00172425-.07843017.00344086-.15679931.00344086-.23517608-.00482178-4.64393616-.00482178-9.28786469-.00482178-13.9270401l.11096192-.10943604c-.01930237-.03807067-.03859711-.07613372-.06272126-.12847137.05307007-.0285492.10614014-.06185913.15920258-.09040833-.04341888-.0475769-.06271362-.07136535-.08683777-.09516143.0385971-.0142746.0723648-.02378846.11096192-.03806305.00686645-.01863861-.00888825-.03968811-.02484894-.06099701-.028862-.03855133-.0583725-.07796478.04414367-.10553742l-.00964355.00951386c.01447296.0142746.02894592.03330993.04341888.04758453l.01929474-.01903534c-.01447296-.0142746-.0337677-.0285492-.05307007-.03806305.01447297-.01903534.02412415-.03806305.04341889-.05709839.02412414-.02378845.04824829-.03806304.0723648-.0618515.01447297-.00476074.03377534-.0142746.0482483-.01903534-.01447296-.0142746-.03377533-.02854919-.0482483-.03806305.11096192-.09040832.2363968-.16653442.29428864-.31404113.01929474-.0428238.08683777-.07136536.13025665-.1046753.00482178.0142746.01447297.03330994.01929474.0475769.01447296-.01426696.02894593-.0333023.03859711-.0475769.01929474-.0142746.04341888-.02854919.05789185-.04758453.02085876-.0164566.03810882-.0364685.05487823-.06004333.01387024.01403808.02774048.03208923.04161072.04576873l.01929474-.0190277c-.01447296-.0142746-.0337677-.0285492-.05307007-.03807069zm0 0L32.98394776.257576l.00180817.00180817c.00261688-.003685.00523377-.00746155.00783539-.01132966zm13.62873078 4.32514954c.0385971.0333023.09648896.0475769.14472962.07137299.25569153-.17129517.51620483-.34259034.78154754-.51863861.19779206-.12847138.40524292-.22838593.62715912-.3092804.23638916-.0904007.46796417-.18556213.71400452-.24742126.16402435-.0428238.33769989-.06661225.49208069-.1189499.10045623-.03225707.20204162-.031044.3014679-.02985382.10590362.00126648.2093582.00250245.30639648-.03675842.12216186-.04701996.24432373-.04140472.36535644-.0358429.07492829.0034485.1494217.0068741.2232132-.00222778.06830597-.0092926.130867.01091004.19385528.03125.06600953.02131653.13249207.04278565.20655823.03060913.13508606-.02378845.26534271 0 .40042114.0475769.1206131.0428238.26534272.03807069.39559937.06661988.12542724.0285492.25086212.07136536.37147522.1189499.12060547.04758452.23156738.11894988.35699463.15702056.4969101.15225983.90697479.45677948 1.31704712.7565384.52584839.38540649.92626953.87074279 1.27844238 1.40840911.28945923.44250488.54032898 1.11815643.66575623 1.6034851.06272125.25218201.10614013.49960328.1206131.75654603.00482177.16653442.05789184.33306885.05789184.50911712.00341034.11777497-.0173111.22841645-.03826141.3403244-.00868226.04633332-.01739502.09288788-.02445984.14025117-.00833893.05265045-.00572205.1064453-.00310517.15999603.00493622.1013031.00982666.2017517-.05960846.2920227-.0337677.40444184-.19779968.76605988-.33769989 1.14195252-.17850494.48056793-.47278595.88500976-.77189636 1.29421234-.21227264.29024506-.46795654.53766632-.73812103.76605225-.39559174.33307647-.83460999.61856079-1.31221771.827919-.17849732.07613373-.36664582.12847138-.54997254.19983673-.18332672.07137299-.376297.11419678-.5644455.17129517-.17367553.05233765-.36665344.05709839-.54997253.06185913-.09983063.00371551-.19818878.01903534-.29651642.03434753-.15350341.02391053-.30693054.04780579-.46572876.02750397-.34735107-.04282379-.70435333-.04282379-1.03723144-.12846374-.32323456-.08089447-.64163971-.19508362-.95522309-.31404114-.49690246-.19032288-.9310913-.46154022-1.33633422-.78508759-.03859711-.03330993-.09648896-.04758453-.14472962-.07137298-.25569153.17128753-.51620483.34734344-.77671814.5186386-.19779968.12846375-.40524292.22838593-.62716675.30927277-.23638916.09040833-.46795654.18080903-.71399688.24742127-.16402436.04282379-.33770752.06661987-.4920807.11895752-.10045623.03225708-.20204162.031044-.30147552.02985382-.105896-.00126648-.20935058-.00250244-.30638885.03675842-.1221695.04701996-.24433899.04140473-.3653717.03583527-.07492829-.00344086-.14941407-.00686646-.22319794.00222778-.0683136.0092926-.13087464-.0109024-.19387055-.03124237-.06600952-.02131653-.13249206-.04278564-.2065506-.03060913-.13507843.02378845-.26533508.00475311-.40042114-.04758453-.12060547-.0475769-.26533508-.03806305-.39559173-.06661225-.12543488-.0285492-.25086975-.07137298-.37147522-.11895752-.12060547-.0475769-.23156739-.11894989-.35700226-.15701294-.50173187-.15225982-.9069748-.45677948-1.3170395-.75654602-.525856-.3854065-.92626952-.87073517-1.27845-1.40840149-.294281-.44250488-.54515076-1.11816406-.670578-1.60349273-.06272126-.25218201-.10614014-.49960327-.1206131-.7565384-.00482178-.16653442-.05789185-.33306884-.05789185-.50912475-.00341034-.11777496.0173111-.22841644.03826904-.34033203.00867462-.04632568.0173874-.09287262.02445221-.1402359.00630951-.04981995.00384522-.1006546.00138855-.15133667-.00505829-.10423279-.01008606-.2078476.06132508-.3006897.0337677-.4044342.19779968-.76605225.33769989-1.14194488.17850494-.48057557.47278595-.8850174.77189636-1.29421235.21227264-.29024505.46795654-.54242706.73812103-.76605987.39559937-.33306885.83460999-.61855316 1.31221771-.82791138.17850495-.07613373.36665345-.12847137.54997254-.19984436.18332672-.07137298.376297-.11419678.5644455-.17129516.17368316-.05233765.36665344-.0570984.54998016-.0618515.099823-.00371552.19817352-.01903535.29649353-.03434754.15351104-.02391052.30693817-.04781342.46575164-.0275116.34735108.0428238.7043457.0428238 1.03722382.12847138.32323456.08088684.64163971.19508362.95522308.3140335.49690247.19033051.93109131.46154023 1.33633423.78509522z"/>
    <path fill="rgb(236,156,63)" fill-rule="evenodd" d="M32.38572858.842827c-.014473-.0142744-.03377031-.02854878-.0482433-.03806503.01447299-.00475813.0337703-.01427439.0482433-.01903252V.842827z"/>
    <path fill="rgb(236,156,63)" fill-rule="evenodd" d="M32.81026964.36701415c.01447299-.01427439.02894598-.0333069.03859464-.04758129.00482433.01427439.014473.0333069.01929732.04758129h-.05789196z"/>
    <path fill="rgb(236,156,63)" fill-rule="evenodd" d="M69.61508501 7.16637973c.12543259.08564631.27498682.18556701.44383838.29500397-.01929732.21411578-.04341897.42347343-.05789196.5852498-.19779754.24266455-.41006807.3854084-.67540623.43774782-.03377032.00951625-.06754063.03806502-.10613527.03806502-.28945981.00475813-.57891963 0-.8780281 0 .12543258-.46629659.24121651-.90880253.36182477-1.36082474.3039328.00475813.59339261.00475813.91179841.00475813z"/>
    <path fill="rgb(236,156,63)" fill-rule="evenodd" d="M82.8723445 7.68501573c-.04341897.14274386-.0627163.28548771-.13508125.3996828-.07718928.12371134-.2074462.21411578-.30875713.31403647-.20262187.00951626-.37147343.15226012-.58374396.12846947-.2074462-.01903251-.41971673-.00475813-.65610891-.00475813.00964866-.44250594.21227053-.84694686.24604084-1.28945281l.08201361-.08088818c.2074462 0 .41971673.00475812.63198726 0 .19779754-.00475813.3811221.0333069.53067633.17605075.00964866.00951626.03859464.00475813.0627163.00475813.0337703.1189532.07718928.22839016.1302569.3521015z"/>
    <path fill="rgb(236,156,63)" fill-rule="evenodd" d="M85.17355002 10.14021002V9.8832711c.06754063-.32831087.31358147-.3996828.54032499-.4520222.16402723-.03806504.33287878-.09040445.51620333-.07613006.12060826.00951625.24121652-.04282316.3811221-.0666138.06754062.25693894-.13025692.46153846-.10131094.69944488-.13990558.12846947-.3039328.22839017-.49208169.26169707-.16885155.02854877-.33770311.11895321-.51620333.05709754-.1109596-.04282316-.21709486-.10943695-.32805446-.1665345z"/>
    <path fill="rgb(236,156,63)" fill-rule="evenodd" d="M73.6675224 9.28850503c-.04341896.16177637-.0964866.28072958-.11095959.40919905-.03859464.28072958-.15437856.45678033-.4631357.518636-.16402723.0333069-.32323013.11895321-.49690601.0999207-.09166228-.00951626-.18332455-.04282316-.29910848-.07137193-.02894598-.0333069-.07236495-.08564631-.13508124-.15701824-.05306764-.23790642.07718928-.53291039.33287878-.59476606.21709486-.05233941.43418972-.14274385.6705819-.1332276.1592029 0 .3184058-.04758128.50173035-.07137192z"/>
    <path fill="rgb(236,156,63)" fill-rule="evenodd" d="M22.88179801 9.70722033c.35700044-.9040444.70917655-1.77954004 1.06135265-2.66931007.19779754.88977003.39559508 1.77478192.59339262 2.66931007h-1.65474527z"/>
    <path fill="rgb(236,156,63)" fill-rule="evenodd" d="M45.28116608 8.64615631h-.28945923c-.01496124.10919952-.03503418.21748352-.05516815.32613373-.04479218.24169922-.08990479.48514557-.07991791.7444458h.30393219c-.005867.06076813-.0041504.12065124-.00244904.18004608.00389862.13562012.0077057.26802826-.07955932.40044403-.12923432.09240723-.28227234.08451843-.44026947.07637024-.07801056-.00402069-.1571045-.00808716-.23513794-.00023651-.09166718-.09516144-.17850495-.18556976-.28463745-.2950058v-.19984436c-.20262146.3378296-.48243714.49960327-.85873413.49008942-.04908753-.00107575-.09817505-.00045014-.14709473.00017547-.16744232.00213623-.33291626.00424958-.48971558-.06202697-.0337677-.0142746-.06754303-.03330994-.1061325-.05234528-.00482178.00476074-.01930237.03330994-.0337677.03330994-.18815613.00951385-.37630463.01903534-.5692749.0285492-.01447297-.0428238-.02894593-.07613374-.0434189-.12371064-.08683776.05233765-.16885375.10943603-.27980804.17604828-.02680206 0-.0568161-.00045014-.08906555-.00093842-.07221985-.001091-.15560913-.00234985-.23899078.00093842-.24121857.00476074-.52102661-.24742127-.52102661-.50911713v-.35686493c0-.00475311-.01447296-.0142746-.0482483-.0475769-.00152587.04824066.00130463.0969696.00405121.1441803.00590516.10145568.01136017.19528198-.02816772.26026153-.0437851.07286072-.041008.14419556-.03832245.21313477.0020523.05260467.00404358.10381317-.01474762.15323639-.01929474.01903534-.04341888.03807068-.0723648.07137298h-.6368103c-.00035859-.00597381-.00074006-.01191711-.00112153-.01784515-.00479126-.07440949-.00943756-.14654541.039711-.23908997.05789947-.10943603.02412414-.252182.06272125-.38541412.06271362-.22838593.05307007-.4758072.07718659-.71847534.02664184-.03285218.04102325-.05058289.04361724-.06989289.0030365-.02263641-.01013946-.0474472-.03878784-.10139465 0 .06661224 0 .12371063-.0048294.17128754-.11096192.13323211-.12543488.29976654-.18332673.44726562-.1061325.2664566-.20262146.53291321-.30393219.79936218-.01447296.0428238-.04824066.08089448-.0723648.12371827h-.38111878c-.01929474-.0142746-.04824066-.0428238-.09648895-.08564759V8.76511383c-.1157837.51387787-.1833191 1.03250885-.29911041 1.53687286h-.61268616c.00280762-.0401535.00275421-.08150482.0027008-.12298584-.00014495-.1001892-.00028228-.1991806.04071809-.27669525.027359-.05605316.02349853-.11481476.01966857-.1731491-.00495147-.07535554-.00984954-.14996338.05269623-.21701813.02304077-.02841187.02028656-.07717133.01741028-.12809754-.0019455-.03433227-.0039444-.06963348.00188446-.10029602.00965119-.07137298.05307007-.14273834.05789185-.21411133.00444793-.14027404.0334549-.2775116.06251526-.41498565.03403472-.16096497.06812286-.32225037.06291961-.48905945.06100464-.07019806.06010437-.14979553.05918885-.23052979-.0003891-.03418731-.0007782-.068573.00352478-.10253906.01447296-.09992218.04341888-.19984436.06754303-.31404114h.88285064c.01447296.0142746.0385971.0428238.082016.09040833v1.25138855c.00965118 0 .01929473.00475311.02894592.00475311.1543808-.45201874.31358337-.89928436.46796417-1.35606384h1.02275085c-.1061325.63282776-.21226501 1.2609024-.31840515 1.8842163.01447296.00476075.03377533.00476075.0482483.0095215.00964355-.04758454.01929473-.09516145.02894592-.15225984.08683776-.08564758.17367553-.18556976.27498626-.2664566.08683777-.06661224.19297028-.10943603.31840515-.18080902h.62233735c-.02412415-.08564758-.04341889-.15225983-.06271363-.22839355l-.04121399-.00125123c-.30233001-.00926971-.58065033-.01779937-.88988495.0868988.01365662-.07312774.01390076-.1400299.01412964-.20417022.00034333-.09443664.00066376-.18289184.04376221-.2763977.05789185-.12847138.16403198-.18556977.25086975-.1903305.07572174-.00679017.1508255-.02205659.22619629-.03736878.13593292-.02762604.27268982-.05542755.4154358-.03399659.28463744.0475769.54032897.1332245.66575622.4187088.02412414.05234528.02894592.10468293.05307006.19033051.05307007-.08088684.11096192-.14274597.13990784-.20935821.04824066-.10943604.1157837-.17605591.23156738-.23314667.01678467-.00777435.03296662-.01530457.04860688-.02258301.35749817-.16629791.4321518-.20102692.94520569-.09161377.03738403.00614166.07476806.00435639.11734771.0023117.0233612-.00112151.04827881-.0023117.07562256-.0023117-.02894592.20459747-.05789184.39016724-.08683777.58525086h-.60786438l-.09648895.09516143v.12847138c.01929474.00475311.04824066.01426697.0723648.02378845.05789185.0285492.12060548.05709839.17367554.09516144.10131073.07137298.26051331.05709839.3039322.22363281.02894592.11419678.10131072.21411133.1447296.3092804.09166718-.5614624.19297791-1.14195252.29428864-1.75099183.00482178-.00476074.0337677-.02854919.07718659-.06661987h.54997253c.01929474.01903534.05307007.05234528.07719422.08089447-.02895356.0904007-.0482483.16653443-.07236481.24742127.1157837.02378845.20744324.04282379.31357574.06661224-.06741333.12299347-.06417083.23903656-.06103515.3513565.0013504.0485077.00268554.0962143-.00167847.14348603-.07971954.02144623-.0777893.0643692-.07597351.10456848.00060272.01332092.00119019.02633667-.00121307.0381775zm-1.76570893 1.02776337c-.09648895-.08564759-.1543808-.15225983-.2219162-.19508362-.26052093-.15702057-.51620483-.31879425-.58374786-.68517304-.04824066.3521042-.09165955.65662385-.13025665.9611435.05307007-.00952149.11096191-.03330994.16885376-.03806305.09648132-.00476074.18331909.00951385.27980804.0475769.10666657.04716492.21894074.0058136.35395813-.0439148.04206085-.0154953.08631897-.03179168.13330078-.0464859zm-2.0985794-.18081665c.0385971-.03330994.08683777-.07613373.14472961-.12847138.13507843 0 .25569153 0 .38594818.00476075-.02412414.03806304-.05307007.0618515-.05789184.0904007-.00326538.02575683-.00211335.05151366-.00102234.07579803.0005188.0116043.00102234.02287292.00102234.033638l-.19779969.19508361c-.0076294.00119019-.01531982.00247193-.02306366.00376893-.08531952.01426696-.1767273.02955627-.2519226-.07514191v-.19983673z"/>
    <path fill="rgb(236,156,63)" fill-rule="evenodd" d="M51.42253876 8.82696533l.06271362-.0618515-.18332672-.18080902c-.21226502-.00952148-.50173187-.01903534-.81530762.08563995 0-.03536224.00151062-.0677414.0029068-.09762573.00292206-.06261444.00533295-.11423492-.0077362-.15930939-.0078354-.0251236.0201416-.04632568.04547119-.0655136.03702545-.0280533.06835937-.0518036-.02616883-.07723237.05789185-.21887207.21226502-.28548431.41971588-.2807312.082016 0 .16402436-.03806305.24604035-.05709076.13973236-.03180694.2768097.0019989.41122436.03514862.04656983.01148224.09281922.02289582.13874817.03146363.14472962.02854919.2701645.14273834.34735108.2854843.04824829.09992219.09648895.19984437.1543808.3092804.02894592-.20459747.05789184-.39492797.08683776-.5947647h.58856965c.00964355.0475769.01929473.09992218.02411651.13322448l.13508606-.13322448h.38594818c.03858948.0904007.00482178.15225982-.05307007.21411132-.0385971.0428238-.04341888.11419678-.02412414.19508362l.32805633-.32354736c.1157837-.11419678.29428101-.06185913.42453766-.16178131.17367554.07613373.35218048.15225982.5306778.22839355.01929474-.10468292.04341888-.22363281.06754303-.3711319-.00482178-.00476074-.02412415-.03330993-.0337677-.04758453.02411651-.07137298.04341888-.13322449.06271362-.20935821h.6368103c-.00306701.04975128.0016327.1004486.00643158.15213775.01026917.11063385.02082062.22429657-.04502868.33795166-.02088166.03825379-.01778412.08924866-.01465607.14060211.00193024.03167725.0038681.06349945.0001831.09254456-.00964355.07137299-.04824066.14274597-.05789184.21411896-.02411652.18080902-.01447296.36637115-.0675354.53766632-.09648895.2997589-.05789185.61855316-.17367554.90879822-.01395416.03578186-.01015472.07633209-.0063324.1170578.00278473.029747.00556183.05949401.001503.0875473-.00964356.0618515-.04824067.11894989-.07718659.19508362-.21709442 0-.43901062 0-.66575623-.05234528-.06272125.03330994-.12543487.06661987-.1929779.09516144-.03549194-.04667664-.07280731-.02716828-.11083221-.00727844-.0239792.01255035-.04823304.02523803-.07248688.02155304-.05912018-.00728608-.12107086-.0062027-.1728363-.0052948-.015831.00028228-.03070832.00054168-.04425812.00054168-.22192383-.10943603-.39559937-.2379074-.48725891-.45677948-.00792695-.01989746-.01606751-.03957367-.0241623-.05915832-.04614258-.11158753-.09090423-.21983338-.08679962-.34528351.00193024-.05138397.00077057-.10276794-.0003891-.15415192-.0017395-.0770874-.00347137-.1541748.00521088-.23125457.00965118-.10944367.04824829-.2188797.06754303-.323555-.1061325-.08564758-.17367554-.03806305-.2219162.0142746-.16403198.48056793-.21709442.95638275-.29911041 1.42267609-.00482178.02379608-.03859711.04282379-.06754303.07137298h-.32322693c-.03038788 0-.06208801-.0025711-.09378052-.00513458-.07395935-.0059967-.1479187-.0119934-.2053299.01465607-.06427764.02881622-.12147521.01574707-.17695617.00306701-.03613281-.008255-.0715332-.01634216-.10768128-.0125885-.07575988.00711823-.1515274.0062561-.22930908.00536347-.02622223-.00029755-.05268097-.00060273-.07944488-.00060273-.00965119-.03330993-.02412415-.06661224-.0385971-.10468292-.01447297.00476074-.02894593.00476074-.0434189.00952149-.0723648.0475769-.1399002.09516143-.2219162.15225982h-.34735107c-.19779968.00475312-.31358337-.09040832-.41007232-.25694275-.07236481-.12846374-.13507843-.24742126-.1157837-.39968109.00657654-.06158447.00418854-.12097168.00199128-.17539215-.00101471-.02524566-.00199127-.04935455-.00199127-.07202911.04341888-.08088684.0771942-.14274597.1109619-.20459748l-.05789184-.05709838c.09165955-.06661225.17849732-.13323212.27498627-.19508362.08683777-.05233765.18332672-.09040833.2701645-.15225983.05760192-.03952026.12561034-.03288269.1891632-.02668.0588684.00575257.11392975.01112367.15336609-.02090453.08874511-.0595169.15397644-.03144837.22453308-.001091.02533722.0109024.05135345.02209472.0793991.0296402zm2.39286804.75654602c.08200836.0475769.15920258.09516144.24604034.14274597.3714676-.19508361.44384003-.51387786.41971588-.86598205-.04824829-.08088684-.08683776-.14274597-.13025665-.20935822h-.27016449c-.01929474.01903534-.0385971.03806305-.06271362.0570984-.14955902.12847137-.2267456.2807312-.20745087.48056792.0102768.09118653.00839234.18238831.00643921.27713776-.00080108.03862-.0016098.07780457-.0016098.11779022zm-1.67404938-.69944763h.01929474v.06185913h-.01929474v-.06185913zm-.0289383.36637878c-.01930236 0-.03377532.00476075-.05307006.00476075.00965118.0333023.01447296.06661224.02412415.09516144.00964355 0 .01929473-.00476075.02894592-.00476075V9.2504425zm-1.17713927.51863099c-.02894593-.03806305-.06754303-.09516144-.10131073-.14750672.06754303-.09991455.11578369-.17604828.16885376-.25693512h.38111877c-.0385971.19984436-.0385971.19984436-.25086212.40444184h-.19779968z"/>
    <path fill="rgb(236,156,63)" fill-rule="evenodd" d="M49.62288666 7.45140076c-.08164215.00132751-.16375733.00266266-.24586487.00047302-.00797272.00589752-.01511383.01178741-.021904.01738739-.02610015.02153015-.04694366.03871918-.08905791.03495026-.16402436.02854919-.27015686.15701294-.42453766.21411132-.13508606.04758454-.19779969.2188797-.25569153.36161805-.00965119.02379608-.01447296.05234527-.02894592.07613372-.01447297.0285492-.03859711.0428238-.06271363.06661225-.00965118-.00951386-.02412414-.01903534-.03377533-.0285492.02412415-.0618515.0482483-.12371063.07719422-.20459747h-.41971588c-.02412415.02378845-.082016.08564758-.13025666.12847137-.0048294-.02854919-.01447296-.08089447-.02412414-.12371063h-.5644455c-.05307007.15701294-.10131073.29975891-.08201599.45677948 0 .01902771-.00482178.0428238-.01447296.05233765-.0561905.04925537-.04976654.10649109-.04345703.16266632.00344085.03063965.0068512.0609665.00003814.08951569-.01929473.0904007-.04824066.18080902-.05789184.27120971-.02412415.19032288-.00965119.39016724-.0723648.56621552-.04824067.13798523 0 .2807312-.06271363.39016723-.05202484.0916214-.04680634.16912842-.04166412.2455597.00154113.02281189.00306701.04551696.00306701.06848144h.69470215c.05307007-.33782959.07719421-.67089844.1543808-.99445343.04341888-.19032287.05307007-.42346954.25569153-.52815246.08200836-.01902771.14955139-.03806305.2219162-.05233765v.71847534c0 .50436401.45348358.92784119.93592071.92784119h.54032135c.07719421-.04758454.1543808-.09040833.20745087-.12371826.02894592-.22838593.05789184-.4329834.08683777-.64710236-.17714692-.00759125-.32354737.0393753-.45147705.08042145-.032341.01037597-.06349946.02037048-.09367371.02901458-.08683777-.02378845-.1495514-.04282379-.25569153-.0761261-.07718658-.09992217-.1881485-.2331543-.294281-.36637878.02894592-.19984436.05789184-.39968109.08201599-.5947647.05789184-.08564759.11578369-.17129517.18331909-.25218201.06272125-.08088685.13508606-.15702057.20745087-.23790741.08200836-.01902771.17367553-.03806305.27015686-.0618515.18332672.05709838.37630462.11894988.5692749.18080902.00980377-.05692292.02132416-.11238862.0326767-.16705323.03894805-.18753814.07595062-.3656845.03486633-.5609436-.2451706-.12823486-.51322937-.12387085-.7865448-.11942291zm-1.2589798 1.02822113h.05307007v.09516144c-.00965119 0-.01930237.00476074-.02894592.00476074-.00965119-.03330994-.01447297-.06661225-.02412415-.09992218z"/>
    <path fill="rgb(236,156,63)" fill-rule="evenodd" d="M45.65263367 8.19412994c-.10613251.10944367-.20744324.22363282-.30875397.33306885-.00260162.01152802-.00170136.0251236-.00078583.0389328.00247956.03749085.0050583.07654572-.0619278.08002472-.01930236.09992218-.05789184.19983673-.05789184.29975891.00125122.08525086-.00172424.17082215-.00470734.25655365-.00849914.24441529-.01704406.49008179.07224274.73313904.0482483.05233765.10131073.10943604.16403198.16177368.20262146.17129517.41971589.29024506.69952393.27597046.06569672-.0037384.13172913-.00388336.1978302-.00402832.18629456-.00041962.37316132-.0008316.5547638-.08161163.0385971-.2046051.08201598-.41396332.12543487-.64710999-.12060547.0428238-.21227264.00476074-.32805634.05233765-.11095428.04758453-.2605133.08564758-.38594055.07137298-.14955902-.0190277-.29428863-.10943603-.42454529-.16177368V9.4122162h1.20126343c0-.03712464-.00141144-.07240296-.00276184-.10625458-.0029831-.07461548-.00569153-.14232636.00758362-.20778656.00527191-.02600098.0102539-.05031586.0149231-.07312012.0637207-.3111267.07014465-.34248352-.01974488-.55970764-.09166717-.22363281-.2267456-.40920258-.49208832-.48057556-.39076995-.1046753-.68022918-.05709076-.95039367.20935821zm.50173187.39017487h.19297028c.05307006.06185913.1061325.12847137.19297027.22839355-.13884735.00893403-.25881195.00854493-.37525177.00817109-.069664-.00022126-.13806152-.0004425-.20848846.00134277.00482177-.07137299.06754303-.09516144.09648895-.13323212.02894592-.03806305.0675354-.07136535.10131073-.10467529z"/>
  </g>
</svg>
