<svg xmlns="http://www.w3.org/2000/svg" xmlns:xlink="http://www.w3.org/1999/xlink" width="155" height="117.998" viewBox="0 0 155 117.998">
  <defs>
    <rect id="rect-1" width="155" height="117.998" x="0" y="0"/>
    <mask id="mask-2" maskContentUnits="userSpaceOnUse" maskUnits="userSpaceOnUse">
      <rect width="155" height="117.998" x="0" y="0" fill="black"/>
      <use fill="white" xlink:href="#rect-1"/>
    </mask>
  </defs>
  <g>
    <use fill="none" xlink:href="#rect-1"/>
    <g mask="url(#mask-2)">
      <path fill="rgb(236,156,63)" fill-rule="evenodd" d="M97.60539246 43.26681519s7.72801208 27.39396667 30.6921234 30.30555725c0 0 2.98275758-8.6986084 26.65124513-14.67816162-.93890381.19692993-34.98625183 5.88186645-57.34336853-15.62739563zm3.9268341 4.85264587s5.43473816 16.4363861 24.22071839 21.00726318c0 0 3.61268615-5.29095459 15.36177063-7.82685852 0 0-18.56607056 3.94473267-39.58248902-13.18040466z"/>
      <path fill="rgb(236,156,63)" fill-rule="evenodd" d="M132.56992298 76.0143424s-8.89035265 4.35172718-16.68119173-4.22649762c0 0 9.76996352 14.80839537 16.68119173 4.22649762z"/>
      <path fill="rgb(236,156,63)" fill-rule="evenodd" d="M111.9933014 44.67564392s-4.08390809-9.48612976-31.06910706-14.15093994c0 0 39.2997589 3.9760437 62.76651-22.32216644 0 0-6.28292846 31.24477386-31.69740295 36.47310638zM96.6629486 31.9961548c13.28840638 1.87844848 17.81211854 7.45115661 17.81211854 7.45115661 21.45620727-7.13807678 25.28881836-25.51551819 25.28881836-25.54682922-22.021698 20.91333008-43.1009369 18.0956726-43.1009369 18.0956726z"/>
      <path fill="rgb(236,156,63)" fill-rule="evenodd" d="M139.07276044 0s-.4712201 2.7550503 7.13113093 6.23017057c2.45034454 1.12706603 1.35083096 7.82684744 1.35083096 7.82684744s3.67551683-5.16571931.75395217-9.799213c0 0-5.3719092.18784434-9.23591406-4.25780501z"/>
      <path fill="rgb(236,156,63)" fill-rule="evenodd" d="M107.62667207 46.96108468s10.6181597 2.4419764 17.68646129-6.16755579c0 .0313074-8.73327929 16.21722791-17.68646129 6.1675558z"/>
      <path fill="rgb(236,156,63)" fill-rule="evenodd" d="M82.30644507 25.82859657s.1256587.68876258-1.63356303 1.69059905c-2.48175922 1.40883254-1.539319 6.26147796-1.539319 6.26147796s-2.41892988-3.13073898-.7225375-6.104941c-.03141468 0 3.29854073-.68876258 3.89541953-1.847136z"/>
      <path fill="rgb(236,156,63)" fill-rule="evenodd" d="M114.09809485 15.49715794c-.37697608-2.28543945.4712201-3.91342372 1.38224564-4.97787497-2.82732063.2817665-5.02634779 2.69243552-4.96351844 5.60402277.06282935 3.03681681 2.60741792 5.47879321 5.65464127 5.41617843 1.03668423-.03130739 1.97912444-.3130739 2.79590595-.81399213-2.41892987-.56353302-4.49229833-3.00550942-4.86927442-5.2283341z"/>
      <g>
        <g>
          <path fill="rgb(255,255,255)" fill-rule="evenodd" d="M35.5928253 75.419502c0 .9392217-.53404946 1.78452121-1.5707337 2.47328379-.9424402.5948404-1.85346574.87660691-2.82732062.87660691-1.72780706 0-2.95297933-.53222562-3.73834617-1.62798426-.09424402-.18784434-.28273207-.46961085-.56546413-.78268475-1.22517227 1.40883254-2.60741792 2.09759512-4.20956627 2.09759512-1.47648967 0-2.57600325-.43830346-3.36137009-1.34621776-.78536684-.9079143-1.16234293-2.09759512-1.16234293-3.53773505 0-2.09759512.97385489-4.10126806 2.95297933-6.01101884 1.94770977-1.90975078 3.98966356-2.88027986 6.0944467-2.88027986.5968788 0 .91102554.09392217.91102554.2817665 0 .18784435-.34556142.40699608-1.00526956.6261478-1.72780706.53222563-3.2357114 1.50275471-4.49229834 2.88027986-1.3194163 1.47144732-1.97912444 3.0681242-1.97912444 4.75872325 0 .87660692.25131739 1.62798427.75395216 2.22282468.50263478.5948404 1.1937576.9079143 2.07336847.9079143.91102554 0 1.75922173-.40699607 2.48175922-1.2209882.43980543-.50091824.69112282-1.18968081.75395217-2.03498034-.03141467 0-.03141467-.75137735 0-2.25413206 0-2.00367295.28273206-3.3498907.87961086-4.0073459.7225375-.81399213 1.38224564-1.2209882 2.0419538-1.2209882.50263477 0 .78536683.37568868.78536683 1.09575865 0 .84529952-.15707336 2.09759511-.50263477 3.75688677-.31414674 1.69059905-.50263478 2.94289464-.50263478 3.81950155 0 .72006997.28273206 1.37752516.81678151 1.94105817.53404946.56353302 1.1937576.84529953 1.9162951.84529953.5968788 0 1.22517227-.37568868 1.88488042-1.18968082.65970815-.78268474 1.03668423-1.1896808 1.16234293-1.1896808.28273206-.06261479.40839075.18784433.40839075.72006996z"/>
          <path fill="rgb(255,255,255)" fill-rule="evenodd" d="M38.16882324 57.29252625c.31414795-.31307984.47122193-.72006226.47122193-1.15837098 0-.5635376-.21989441-1.06445312-.69111634-1.50276184l-.94244384-1.03314209c-.47122193-.50091552-.81678772-.75137329-1.03668213-.75137329-.6282959 0-.94244385.7513733-.94244385 2.28544617 0 .68875122.18849182 1.31491089.53404236 1.8471222.3455658.53222655.84820556.81399535 1.47650146.81399535.43980408 0 .81677246-.15653991 1.13092041-.50091552zm-1.22515869 9.14175415c.09423828-.43830872.15707398-.72006226.15707398-.84529114 0-.50093079-.21990967-.72007752-.6911316-.72007752-.43980407 0-.87960815.18785096-1.28799438.59483338-.40838623.3757019-.65971375.81399536-.75395203 1.25230407-.09423828.5635376-.15707397 1.53405762-.15707397 2.94288636 0 5.917099.59687805 8.8600006 1.7592163 8.8600006.43980408 0 .65971375-.6261444.65971375-1.9410553v-2.62982177c-.03141785-1.15837097-.03141785-2.06628418-.03141785-2.66113281 0-2.2228241.12565613-3.81950378.3455658-4.85264587z"/>
          <path fill="rgb(255,255,255)" fill-rule="evenodd" d="M49.4466964 60.32934012c0 .12522956.65970814.84529952-5.78029997 1.00183647-.03141467 1.37752515-.03141467 2.7863577-.03141467 4.25780501 0 3.28727593.31414674 5.8231745.97385488 7.63900311.2513174.65745519.34556141 1.40883254.34556141 2.25413207 0 .56353301-.12565869 1.1896808-.3455614 1.847136-.31414674.81399213-.69112283 1.25229559-1.16234293 1.25229559-.37697609 0-.5968788-.25045912-.5968788-.75137736 0-.25045912.03141467-.6261478.1256587-1.09575864.09424401-.46961085.12565869-.81399214.12565869-1.03314386 0-.40699607-.1256587-.87660692-.34556141-1.44013994-.65970815-1.75321382-1.09951358-3.53773504-1.35083097-5.35356365-.15707337-1.40883254-.2513174-3.85080894-.28273207-7.3572366-.84819619-.03130739-2.48175922-.06261478-4.86927442-.06261478-1.53931901 0-2.29327118-.3130739-2.29327118-.97052908 0-.43830346.8481962-.65745519 2.5131739-.65745519h4.80644507v-4.50826413c0-1.25229559.34556141-2.28543945 1.00526956-3.09943159.43980543-.46961084.84819619-.72006996 1.1937576-.72006996.37697609 0 .53404945.2817665.50263478.81399213v.18784434l-.40839076 7.26331443c1.00526956.0313074.50263478.0313074 2.01053912.0313074 2.57600324 0 3.86400486.15653694 3.86400486.50091823z"/>
          <path fill="rgb(255,255,255)" fill-rule="evenodd" d="M55.32124037 77.95540057c0 .53222563-.37697608.81399213-1.09951358.81399213-1.28800162 0-2.32468585-.87660691-3.14146737-2.62982074-.40839075-.97052908-.62829347-3.60034982-.62829347-7.88946222 0-3.13073898.06282935-6.98154793.21990272-11.58373423.03141467-1.44013993.37697608-2.56720596 1.09951358-3.3811981.69112282-.81399213 1.16234292-1.2209882 1.38224564-1.2209882.21990271 0 .3455614.3130739.3455614.90791431 0 .6261478-.09424401 1.47144732-.28273205 2.4732838-.21990272 1.1896808-.34556142 2.00367294-.37697609 2.50459118-.15707337 1.90975077-.21990271 4.85264541-.21990271 8.79737653 0 2.84897247.12565869 4.97787497.37697608 6.4180149.18848804 1.09575864.81678152 2.31674685 1.88488042 3.72557939.2513174.46961084.43980543.81399213.43980543 1.06445125z"/>
          <path fill="rgb(255,255,255)" fill-rule="evenodd" d="M61.16436768 57.29252625c.31414795-.31307984.47122192-.72006226.47122192-1.15837098 0-.5635376-.21989441-1.06445312-.69111633-1.50276184l-.94244385-1.03314209c-.47122192-.50091552-.81678772-.75137329-1.03668213-.75137329-.6282959 0-.94244385.7513733-.94244385 2.28544617 0 .68875122.18849182 1.31491089.53404236 1.8471222.3455658.53222655.84820557.81399535 1.47650147.81399535.43980407 0 .81677246-.15653991 1.1309204-.50091552zm-1.1937561 9.14175415c.09423827-.43830872.15707397-.72006226.15707397-.84529114 0-.50093079-.21990967-.72007752-.6911316-.72007752-.43980407 0-.87960815.18785096-1.28799438.59483338-.40838623.3757019-.65971374.81399536-.75395203 1.25230407-.09423828.5635376-.15707397 1.53405762-.15707397 2.94288636 0 5.917099.5654602 8.8600006 1.7592163 8.8600006.43980409 0 .65971375-.6261444.65971375-1.9410553v-2.62982177c-.03141784-1.15837097-.03141784-2.06628418-.03141784-2.66113281 0-2.2228241.12565612-3.81950378.3455658-4.85264587z"/>
          <path fill="rgb(255,255,255)" fill-rule="evenodd" d="M74.79833806 70.97385265c0 1.2209882-.18848804 2.62982074-.53404945 4.2891124-.43980543 2.25413206-1.03668423 3.3811981-1.75922173 3.3811981-.31414673 0-.4712201-.28176651-.4712201-.84529953 0-.2817665.06282934-.6261478.15707337-1.03314386.37697608-1.65929166.5968788-3.19335376.5968788-4.6334937 0-2.7550503-.62829348-4.16388283-1.82205108-4.16388283-1.16234292 0-2.35610053 2.56720596-3.5812728 7.6703105l-.37697608 1.5027547c-.18848805.53222563-.4712201.9392217-.87961087 1.2522956-.25131739.21915173-.4712201.3130739-.62829347.3130739-.37697608 0-.56546413-.40699607-.56546413-1.2209882 0-.68876258.09424402-1.72190645.28273207-3.0994316.18848804-1.37752515.28273206-2.41066901.28273206-3.09943158 0-2.22282468-.56546413-3.34989071-1.6649777-3.34989071-.1256587 0-.34556142.03130739-.5968788.06261478-.28273207.03130739-.47122011.06261478-.5968788.06261478-.47122011 0-.7225375-.15653695-.7225375-.50091824 0-.37568868.56546412-.87660691 1.6649777-1.5027547 1.03668424-.59484042 1.75922173-.87660692 2.19902716-.87660692.69112282 0 1.16234293.37568867 1.38224565 1.12706603.09424402.2817665.18848804.9392217.25131738 2.00367295 1.06809891-2.69243553 2.13619782-4.03865329 3.26712607-4.03865329.5968788 0 1.25658695.28176651 1.97912444.81399214 1.38224564 1.12706603 2.13619781 3.09943159 2.13619781 5.88578928z"/>
          <path fill="rgb(255,255,255)" fill-rule="evenodd" d="M78.8194163 62.39562785c0 .5948404-.31414674 1.40883254-.91102554 2.37936162-.5968788 1.00183647-1.1937576 1.47144732-1.75922173 1.47144732-.25131739 0-.37697608-.09392217-.37697608-.25045912 0-.06261478.15707337-.3130739.4712201-.75137735.31414674-.43830346.50263478-.72006997.53404946-.84529953-.65970815-.46961084-1.00526956-1.31491037-1.00526956-2.4732838 0-1.62798426.50263478-2.4419764 1.539319-2.4419764 1.00526957.06261478 1.50790435 1.00183648 1.50790435 2.91158726z"/>
          <path fill="rgb(255,255,255)" fill-rule="evenodd" d="M89.28050263 73.66628817c0 .97052908-.3455614 1.90975078-1.0680989 2.88027986-.97385489 1.28360298-2.45034455 1.90975078-4.429469 1.90975078-.62829347 0-1.31941629-.18784434-2.0105391-.53222563-.87961087-.37568868-1.28800163-.87660691-1.28800163-1.47144732 0-.40699607.18848804-.75137735.56546413-1.06445125.37697608-.3130739.78536684-.43830346 1.1937576-.43830346.4712201 0 .9424402.3130739 1.41366031.97052908.4712201.6261478.94244021.9392217 1.47648967.9392217.50263478 0 .97385488-.25045912 1.38224564-.72006997.40839076-.46961084.5968788-.97052908.5968788-1.5027547 0-1.28360299-1.60214836-1.97236556-4.7750304-2.03498034-1.35083097-.0313074-2.23044183-.09392217-2.6388326-.18784434-1.0680989-.25045912-1.60214835-.84529953-1.60214835-1.75321383 0-.65745519.21990272-1.28360298.65970815-1.847136.78536684-1.03314386 1.82205107-2.03498033 3.04722335-3.00550942 1.50790433-1.2209882 2.70166193-1.8158286 3.64410214-1.8158286.5968788 0 1.09951358.2817665 1.50790434.81399213.40839076.56353302.5968788 1.12706603.5968788 1.75321383 0 .40699606-.1256587.81399213-.37697608 1.1896808-.2513174.40699608-.56546413.59484042-.94244021.59484042-.37697609 0-.69112282-.37568868-.91102554-1.12706604-.21990272-.75137735-.5968788-1.12706603-1.09951358-1.12706603s-1.1937576.46961085-2.10478314 1.44013993c-.87961086.97052908-1.3194163 1.72190644-1.3194163 2.25413207 0 .46961084.40839077.75137735 1.25658696.81399213h1.75922172c3.64410215 0 5.46615322 1.00183647 5.46615322 3.0681242z"/>
        </g>
        <g>
          <path fill="rgb(255,255,255)" fill-rule="evenodd" d="M71.122818 116.4008789c3.8639984-1.50276183 5.8117218-3.81950378 5.8117218-6.98155212 0-1.78451538-.72254944-3.50642395-2.10478211-5.19702148-1.19377136-1.40882874-2.70167541-2.53590393-4.46089172-3.38121033-2.19902039-1.03314209-5.24624634-2.06628418-9.11026001-3.1307373-4.77502442-1.3149109-7.85366822-2.2228241-9.23590088-2.72373963-2.01054383-.75137329-3.04722595-1.69059753-3.04722595-2.7863617 0-1.7218933 2.6702423-3.4125061 8.04216003-5.0717926 4.52371216-1.3775177 8.04214478-2.06628417 10.52391052-2.06628417.84819031 0 1.41365052.0626068 1.69639588.21914672.2827301.15653992.72253418.75138855 1.35083007 1.78453064.6282959 1.06445313 1.09950257 1.56536866 1.41365052 1.56536866.69113159 0 1.66497802-.78268433 2.92156982-2.37936402 1.22517395-1.59667969 1.85346985-2.7863617 1.85346985-3.53773498q0-1.5966797-2.26185608-1.5966797c-3.4242096 0-7.94792175.72007752-13.57115173 2.19151307-5.93736267 1.56536865-10.14692688 3.22467041-12.69152832 5.0091858-2.35609436 1.6592865-3.54985047 3.19335937-3.54985047 4.6021881 0 2.09759522 2.32469178 3.85081482 7.0054779 5.25964356 3.36135865.9079132 6.7541504 1.84713745 10.14694215 2.7863617 4.17814636 1.28359984 7.2567749 2.81765746 9.20449829 4.60217284 1.60214233 1.44013977 2.4189148 2.97421265 2.4189148 4.60218811 0 .78268433-.21989442 1.56536866-.6596985 2.34805298-.65971374 1.09576416-2.41893005 2.00367737-5.21484374 2.72373963q-3.53414917.9392395-6.22009278.9392395c1.28799439-.50093079 2.4817505-1.25230408 3.58126831-2.28544617 1.38224793-1.22099304 2.07336426-2.41067505 2.07336426-3.56904602 0-2.41067505-1.85346985-3.63165283-5.59181213-3.63165283-2.13619995 0-4.17814636.43829346-6.18869019 1.28359985-2.29327392.93922424-3.83259582 2.28544617-4.64936828 3.9760437-.2827301.50091553-.40838623.97052002-.40838623 1.47143555 0 3.03681946 3.67550659 4.57089233 11.05795288 4.57089233 3.80117798 0 7.09971618-.53222656 9.86421203-1.59667968zm-10.20976258-6.73109435c1.97912598 0 2.95298767.5635376 2.95298767 1.69059753 0 .9079132-.50263977 1.78451538-1.50791931 2.69244385-.81677246.78268432-1.7592163 1.34620666-2.7644806 1.75320434-3.644104-.2817688-5.466156-1.189682-5.466156-2.75505066 0-1.03314209.911026-1.90974426 2.70166016-2.5671997 1.44508362-.53222657 2.7959137-.81399536 4.08390808-.81399536z"/>
          <path fill="rgb(255,255,255)" fill-rule="evenodd" d="M92.98743413 108.13572432c0 .56353302-.34556141.84529953-1.03668423.84529953-.97385489 0-1.50790434-.53222563-1.63356303-1.62798427-.06282935-1.31491037-.15707337-3.28727593-.28273207-5.97971145-.09424402-1.18968081-.21990271-1.78452122-.40839075-1.78452122-.28273207 0-1.03668424 1.44013993-2.32468586 4.3204198-1.28800162 2.88027985-2.19902716 4.32041978-2.76449128 4.32041978-.09424402 0-.21990272-.06261478-.31414674-.21915172-.1256587-.15653695-.40839076-1.28360299-.87961086-3.44381288-.50263478-2.31674685-.87961087-3.694272-1.09951358-4.16388284-.03141468-.06261478-.06282935-.09392217-.09424402-.09392217-.09424402 0-.18848805.15653695-.28273207.43830345-.09424402.3130739-.25131739 1.65929166-.53404945 4.13257546-.21990272 2.03498033-.4712201 3.22466114-.75395217 3.56904243-.25131739.34438129-.50263478.50091824-.75395217.50091824-.4712201 0-.69112282-.25045912-.69112282-.68876258 0-2.56720596 0-5.00918236.03141468-7.3259292.03141467-.18784435.06282934-.72006997.06282934-1.5653695.03141468-.65745518.03141468-1.1896808.03141468-1.59667688 0-.43830345-.21990272-.65745518-.65970815-.65745518-.03141467 0-.09424402.03130739-.15707337.06261478h-.18848804c-.31414674 0-.43980543-.21915173-.43980543-.65745519 0-.5948404.31414673-1.2209882.91102553-1.90975077.5968788-.65745519 1.1937576-1.00183648 1.7906364-1.00183648.2513174 0 .50263478.25045912.69112283.72006997.18848804.50091824.31414673.87660691.31414673 1.18968081.34556141-.81399213.65970815-1.2209882 1.00526956-1.2209882.37697609 0 .8481962 1.00183647 1.445075 3.0368168l1.28800161 4.47695675c.5968788-1.2522956 1.50790434-3.0994316 2.73307661-5.541408.65970815-1.31491037 1.47648967-1.97236555 2.3875152-1.97236555.75395217 0 1.28800163.9079143 1.53931901 2.7550503.15707337 1.00183647.28273207 2.84897247.34556142 5.5101006.06282934 2.34805424.18848804 3.78819417.37697608 4.3204198.25131739.62614779.34556141 1.00183647.34556141 1.25229558z"/>
          <path fill="rgb(255,255,255)" fill-rule="evenodd" d="M99.4274292 90.82273865c.3455658-.34439087.50263977-.75138855.50263977-1.22099304 0-.59484864-.25131226-1.09576416-.72253418-1.53405762-.31414795-.37568665-.65971375-.72007752-.9738617-1.09576416-.5026245-.53222656-.87960815-.78268433-1.09950256-.78268433-.65971374 0-.9738617.81399536-.9738617 2.37936402 0 .75137329.15707398 1.3775177.53404237 1.9410553.37698364.5635376.8796234.84530639 1.5393219.84530639.47122192 0 .87960815-.18785095 1.1937561-.53222656zm-1.25657654 5.29093933c.09425354-.4696045.15707398-.78268433.15707398-.9079132 0-.4696045-.21989441-.72006227-.69111634-.7513733-.47122192 0-.911026.21914673-1.35083008.6261444-.40840148.40699769-.69113159.8453064-.78536987 1.3149109-.09423828.6261444-.15707397 1.62799072-.15707397 3.09944153 0 6.16755676.6282959 9.235672 1.85346985 9.235672.47122192 0 .69111633-.68876649.69111633-2.03497315v-2.72375488c-.03141785-1.22097779-.06282044-2.16020203-.06282044-2.78634644 0-2.3167572.12565613-4.00735474.34555054-5.07180786z"/>
          <path fill="rgb(255,255,255)" fill-rule="evenodd" d="M107.21828131 108.13572432c0 .56353302-.37697608.84529953-1.13092825.84529953-1.3194163 0-2.41892987-.9079143-3.29854074-2.7550503-.43980543-1.00183648-.65970814-3.75688678-.65970814-8.23384352 0-3.25596853.06282934-3.81950155.21990271-8.60953219.03141467-1.5027547.40839076-2.66112813 1.13092825-3.50642765.7225375-.84529953 1.1937576-1.28360299 1.41366032-1.28360299.21990272 0 .34556141.3130739.34556141.9392217 0 .65745518-.09424402 1.5340621-.28273206 2.59851335-.21990272 1.2209882-.34556141 2.09759512-.37697609 2.59851335-.15707337 2.00367295-.21990271 1.59667688-.21990271 5.69794494 0 2.97420203.1256587 5.1970267.40839076 6.66847403.18848804 1.12706603.84819619 2.4419764 1.94770976 3.88211633.34556141.53222563.50263478.87660692.50263478 1.15837342z"/>
          <path fill="rgb(255,255,255)" fill-rule="evenodd" d="M118.93595886 107.19650269c1.13092041-.65745545 1.69639588-1.28359986 1.69639588-1.84713746 0-.31307983-.15707398-.43830871-.4084015-.46961975-.09423827 0-.65969848.2817688-1.7592163.81399536-1.09951782.53222657-2.01054382.81399537-2.733078.81399537-.65971375 0-1.41366578-.18785096-2.19902039-.50091553-.78536987-.34437561-1.35084534-.72007752-1.72781372-1.189682 2.79589844-1.44013978 4.68078613-3.2559662 5.59181213-5.38487244.18849182-.4696045.2827301-.90791321.2827301-1.3775177 0-.93922425-.2827301-1.7532196-.87960815-2.5045929-.59687805-.72007752-1.35083008-1.09576416-2.29327392-1.09576416-1.57073975 0-3.1100464 1.00183105-4.61795044 2.97419739-1.44508362 1.84713745-2.1676178 3.56904602-2.1676178 5.19703674 0 1.56536865.72253418 2.94288635 2.1047821 4.1638794 1.38224793 1.189682 2.85873413 1.81582641 4.42947388 1.81582641 1.57072449 0 3.11004639-.4696045 4.68078613-1.40882873zm-4.36665344-9.7992096c.84820557 0 1.2565918.5635376 1.2565918 1.6592865 0 .87661743-.3455658 1.84713745-1.06809998 2.84898376-.72253418 1.0331421-1.5393219 1.69059754-2.3875122 2.03497315-.50263978-.4696045-.75395203-1.09576416-.75395203-1.9410553 0-.9079132.2827301-1.87844849.87960815-2.97419739.5654602-1.09576416 1.28800965-1.62799072 2.07336426-1.62799072z"/>
          <path fill="rgb(255,255,255)" fill-rule="evenodd" d="M132.00445886 103.6274602c0 1.00183647-.37697609 2.00367294-1.09951358 3.00550941-1.00526956 1.34621777-2.54458857 2.00367295-4.61795704 2.00367295-.65970814 0-1.38224564-.18784434-2.10478313-.53222563-.91102554-.37568867-1.35083097-.9079143-1.35083097-1.5027547 0-.43830346.18848804-.78268475.5968788-1.09575865.40839076-.3130739.81678151-.46961084 1.25658695-.46961084.50263478 0 1.00526955.34438128 1.47648966 1.00183647.4712201.65745518 1.00526956 1.00183647 1.53931901 1.00183647.53404945 0 1.00526956-.25045912 1.445075-.75137735.40839075-.50091824.62829346-1.03314387.62829346-1.5653695 0-1.34621775-1.6649777-2.06628772-4.96351844-2.1289025-1.41366031-.03130739-2.32468585-.09392217-2.76449128-.18784434-1.09951358-.25045911-1.6649777-.87660691-1.6649777-1.847136 0-.68876257.2199027-1.34621775.69112281-1.94105816.81678152-1.06445125 1.88488042-2.09759512 3.20429672-3.13073898 1.57073368-1.2522956 2.82732063-1.87844339 3.80117552-1.87844339.62829347 0 1.16234292.28176651 1.57073368.84529953.40839076.56353301.62829347 1.1896808.62829347 1.847136 0 .43830345-.1256587.84529952-.40839075 1.25229559-.2513174.40699606-.5968788.6261478-1.00526956.6261478-.40839076 0-.7225375-.37568869-.94244021-1.15837343-.21990272-.78268474-.62829348-1.15837342-1.13092826-1.15837342-.53404945 0-1.25658694.50091823-2.19902715 1.5027547-.91102554 1.00183648-1.38224565 1.78452123-1.38224565 2.34805424 0 .50091824.43980543.78268475 1.28800162.84529953h1.85346575c3.76976085-.12522956 5.65464127.93922169 5.65464127 3.0681242z"/>
        </g>
        <path fill="rgb(255,255,255)" fill-rule="evenodd" d="M34.58755574 89.97743825c0 .75137735-.75395217 1.12706603-2.29327118 1.12706603-8.41913255 0-14.98479936-1.2209882-19.66558574-3.63165721-3.54985812-1.847136-6.50283745-4.38303458-8.85893798-7.57638833C1.25658694 76.39003108 0 72.78968125 0 69.06410187c0-5.04048976 1.85346575-9.58006127 5.52898257-13.55609978 2.13619781-2.37936162 4.7750304-4.32041979 7.97932712-5.85448189 3.20429671-1.5340621 6.31434941-2.31674684 9.36157276-2.31674684 4.9006891 0 7.35103364 2.22282467 7.35103364 6.63716663 0 2.09759512-.7225375 3.6629646-2.16761248 4.75872325-1.445075 1.09575864-3.2357114 1.62798427-5.3719092 1.62798427-1.47648967 0-2.82732064-.34438129-4.02107824-1.03314386-1.38224564-.87660692-2.07336846-2.00367295-2.07336846-3.41250549 0-1.90975078.5968788-2.88027986 1.75922173-2.88027986.4712201 0 .87961086.43830346 1.1937576 1.31491037.4712201 1.2522956.84819619 2.06628773 1.09951358 2.41066901.65970814.87660692 1.6649777 1.31491037 3.01580867 1.31491037 1.13092825 0 2.07336846-.34438128 2.8587353-1.00183647.75395218-.65745518 1.13092826-1.56536949 1.13092826-2.69243552 0-1.44013993-.91102554-2.4732838-2.73307661-3.16204637-1.35083097-.50091823-2.8587353-.78268474-4.49229834-.78268474-1.13092825 0-2.10478314.12522956-2.92156465.37568867-3.98966356 1.15837343-7.13113093 3.3811981-9.45581678 6.66847403-2.29327118 3.28727593-3.45561411 6.98154792-3.45561411 11.14543076 0 3.22466115.94244021 6.35540013 2.8587353 9.32960216 1.7906364 2.72374291 4.14673693 4.97787498 7.09971626 6.79370358 4.33522497 2.69243553 10.24118362 4.13257546 17.68646129 4.41434196 1.57073368 0 2.35610053.28176651 2.35610053.81399214z"/>
      </g>
    </g>
  </g>
</svg>
