<svg xmlns="http://www.w3.org/2000/svg" xmlns:xlink="http://www.w3.org/1999/xlink" width="46.216" height="42.76" viewBox="0 0 46.216 42.76">
  <defs>
    <rect id="rect-1" width="46.216" height="42.76" x="0" y="0"/>
    <mask id="mask-2" maskContentUnits="userSpaceOnUse" maskUnits="userSpaceOnUse">
      <rect width="46.216" height="42.76" x="0" y="0" fill="black"/>
      <use fill="white" xlink:href="#rect-1"/>
    </mask>
  </defs>
  <g>
    <use fill="none" xlink:href="#rect-1"/>
    <g mask="url(#mask-2)">
      <g>
        <path fill="rgb(255,255,255)" fill-rule="evenodd" d="M31.82743623 38.02861322H4.94634588c-.36604836 0-.65700989-.29997125-.65700989-.67735444V5.40915898c0-.37738319.29096153-.67735443.6570099-.67735443h26.88109034c.36604837 0 .6570099.29997124.6570099.67735443v8.99913748c0 .37738318-.29096153.67735443-.6570099.67735443-.36604836 0-.65700989-.29997125-.65700989-.67735443V6.0865134H5.60335577v30.58739094h25.56707057V33.7322508c0-.37738319.29096153-.67735444.6570099-.67735444.36604836 0 .65700988.29997125.65700988.67735444v3.61900797c0 .37738319-.30034737.67735444-.65700989.67735444z"/>
        <path fill="rgb(255,255,255)" fill-rule="evenodd" d="M.65700989 42.76041776c-.1689454 0-.3378908-.06773544-.45990692-.19352984C.07508684 42.44109352 0 42.26691667 0 42.08306332V39.8477937c0-.37738319.29096152-.67735444.65700989-.67735444.57253719 0 1.03244411-.4838246 1.03244411-1.0644141 0-.58058952-.46929278-1.06441412-1.03244411-1.06441412C.29096152 37.04161104 0 36.7416398 0 36.36425661v-1.34503238c0-.37738318.29096152-.67735443.65700989-.67735443.57253719 0 1.03244411-.4838246 1.03244411-1.06441411 0-.590266-.46929278-1.06441411-1.03244411-1.06441411C.29096152 32.21304158 0 31.91307033 0 31.53568714v-2.23526963c0-.37738318.29096152-.67735443.65700989-.67735443.57253719 0 1.03244411-.4838246 1.03244411-1.06441411 0-.59026601-.46929278-1.06441411-1.03244411-1.06441411C.29096152 26.49423486 0 26.1942636 0 25.81688042V23.5816108c0-.37738318.29096152-.67735443.65700989-.67735443.57253719 0 1.03244411-.4838246 1.03244411-1.06441411 0-.59026601-.46929278-1.06441411-1.03244411-1.06441411C.29096152 20.77542814 0 20.47545689 0 20.0980737v-2.23526963c0-.37738318.29096152-.67735443.65700989-.67735443.57253719 0 1.03244411-.4838246 1.03244411-1.06441411 0-.59026601-.46929278-1.06441411-1.03244411-1.06441411C.29096152 15.05662142 0 14.75665017 0 14.37926698v-2.23526963c0-.37738318.29096152-.67735443.65700989-.67735443.57253719 0 1.03244411-.4838246 1.03244411-1.06441411 0-.59026601-.46929278-1.06441411-1.03244411-1.06441411C.29096152 9.3378147 0 9.03784345 0 8.66046026v-2.2739756c0-.37738318.29096152-.67735443.65700989-.67735443.57253719 0 1.03244411-.4838246 1.03244411-1.06441411 0-.590266-.46929278-1.06441411-1.03244411-1.06441411C.29096152 3.580302 0 3.28033076 0 2.90294757V.67735443C0 .29997125.29096152 0 .65700989 0h2.14936093c.36604836 0 .65700988.29997125.65700988.67735443 0 .59026601.46929278 1.06441411 1.03244412 1.06441411.56315133 0 1.03244411-.4838246 1.03244411-1.0644141C5.52826893.29997123 5.81923045 0 6.18527882 0h2.16813264c.36604836 0 .65700989.29997125.65700989.67735443 0 .59026601.46929277 1.06441411 1.0324441 1.06441411.5725372 0 1.03244412-.4838246 1.03244412-1.0644141 0-.3773832.29096152-.67735444.6570099-.67735444h2.16813263c.36604836 0 .65700989.29997125.65700989.67735443 0 .59026601.46929278 1.06441411 1.03244411 1.06441411.57253719 0 1.03244411-.4838246 1.03244411-1.0644141 0-.3773832.29096153-.67735444.6570099-.67735444h2.16813263c.36604837 0 .65700989.29997125.65700989.67735443 0 .59026601.46929278 1.06441411 1.03244411 1.06441411.5725372 0 1.03244411-.4838246 1.03244411-1.0644141 0-.3773832.29096153-.67735444.6570099-.67735444h2.16813263c.36604837 0 .65700989.29997125.65700989.67735443 0 .59026601.46929278 1.06441411 1.03244411 1.06441411.5725372 0 1.03244411-.4838246 1.03244411-1.0644141C27.7164315.29997123 28.00739302 0 28.3734414 0h2.16813263c.36604837 0 .6570099.29997125.6570099.67735443 0 .59026601.46929277 1.06441411 1.0324441 1.06441411.5725372 0 1.03244412-.4838246 1.03244412-1.0644141 0-.3773832.29096152-.67735444.65700989-.67735444h2.14936092c.36604837 0 .6570099.29997125.6570099.67735443v2.21591665c0 .37738319-.29096153.67735444-.6570099.67735444-.57253719 0-1.03244411.4838246-1.03244411 1.0644141 0 .59026601.46929278 1.06441412 1.03244411 1.06441412.36604837 0 .6570099.29997125.6570099.67735443V8.6120778c0 .37738319-.29096153.67735444-.6570099.67735444-.57253719 0-1.03244411.4838246-1.03244411 1.0644141 0 .59026601.46929278 1.06441412 1.03244411 1.06441412.36604837 0 .6570099.29997125.6570099.67735443v2.23526963c0 .37738319-.29096153.67735444-.6570099.67735444-.57253719 0-1.03244411.4838246-1.03244411 1.0644141 0 .3773832-.29096152.67735444-.6570099.67735444-.36604836 0-.65700988-.29997125-.65700988-.67735443 0-1.10312008.71332502-2.0320633 1.689454-2.32235806v-1.0740906c-.97612898-.29029476-1.689454-1.22891448-1.689454-2.32235806 0-1.09344359.71332502-2.0320633 1.689454-2.32235806V6.96707418c-.97612898-.29029476-1.689454-1.22891448-1.689454-2.32235806 0-1.09344359.71332502-2.0320633 1.689454-2.32235806v-.9676492h-.9291997c-.28157567 1.00635517-1.19200366 1.74176855-2.25260534 1.74176855-1.06060168 0-1.97102967-.73541338-2.25260533-1.74176854h-1.04182997c-.28157567 1.00635516-1.19200366 1.74176854-2.25260534 1.74176854-1.06998753 0-1.97102967-.73541338-2.25260533-1.74176854h-1.04182997c-.28157567 1.00635516-1.19200366 1.74176854-2.25260534 1.74176854-1.06998753 0-1.97102967-.73541338-2.25260534-1.74176854h-1.04182996c-.28157567 1.00635516-1.19200366 1.74176854-2.25260534 1.74176854-1.06998753 0-1.97102967-.73541338-2.25260534-1.74176854H12.2954708c-.28157567 1.00635516-1.19200366 1.74176854-2.25260534 1.74176854-1.06998754 0-1.97102967-.73541338-2.25260534-1.74176854H6.75781601C6.47624034 2.36106403 5.56581235 3.0964774 4.50521067 3.0964774c-1.06998753 0-1.97102967-.73541338-2.25260533-1.74176854h-.93858556v.9579727c.97612898.29029475 1.689454 1.22891447 1.689454 2.32235806 0 1.09344358-.71332502 2.0320633-1.689454 2.32235806v1.0740906c.97612898.29029475 1.689454 1.22891447 1.689454 2.32235806 0 1.09344358-.71332502 2.0320633-1.689454 2.32235806v1.0740906c.97612898.29029476 1.689454 1.22891447 1.689454 2.32235806 0 1.10312007-.71332502 2.0320633-1.689454 2.32235806v1.0740906c.97612898.29029476 1.689454 1.22891447 1.689454 2.32235806 0 1.10312008-.71332502 2.0320633-1.689454 2.32235806v1.0740906c.97612898.29029476 1.689454 1.22891447 1.689454 2.32235806 0 1.09344358-.71332502 2.0320633-1.689454 2.32235806v1.0740906c.97612898.29029476 1.689454 1.22891447 1.689454 2.32235806 0 1.10312008-.71332502 2.0320633-1.689454 2.33203455v.18385334c.97612898.29029476 1.689454 1.22891448 1.689454 2.32235806 0 1.09344359-.71332502 2.0320633-1.689454 2.32235806v.9676492l.9291997-.0096765c.28157567-1.00635516 1.19200366-1.75144503 2.2619912-1.75144503 1.06998753 0 1.97102966.73541338 2.25260533 1.74176854h1.04182997c.28157566-1.00635516 1.19200365-1.74176854 2.25260533-1.74176854 1.06998754 0 1.97102967.73541338 2.25260534 1.74176854h1.04182997c.28157567-1.00635516 1.19200366-1.74176854 2.25260534-1.74176854 1.06998753 0 1.97102966.73541338 2.25260533 1.74176854h1.04182997c.28157567-1.00635516 1.19200366-1.74176854 2.25260534-1.74176854 1.06998753 0 1.97102967.73541338 2.25260533 1.74176854h1.04182997c.28157567-1.00635516 1.19200366-1.74176854 2.25260534-1.74176854 1.06998753 0 1.97102967.73541338 2.25260533 1.74176854h1.04182997c.28157567-1.00635516 1.19200366-1.74176854 2.25260534-1.74176854 1.06060168 0 1.97102967.73541338 2.25260534 1.74176854h.9291997v-.9579727c-.97612898-.29029476-1.689454-1.22891447-1.689454-2.32235806 0-1.09344358.71332502-2.0320633 1.689454-2.32235806v-.18385334c-.97612898-.29029476-1.689454-1.22891448-1.689454-2.33203455 0-1.33535589 1.05121582-2.41912298 2.34646389-2.41912298.36604836 0 .65700989.29997125.65700989.67735443 0 .37738319-.29096153.67735444-.6570099.67735444-.57253718 0-1.0324441.4838246-1.0324441 1.0644141 0 .59026601.46929277 1.06441412 1.0324441 1.06441412.36604837 0 .6570099.29997125.6570099.67735443v1.34503238c0 .37738318-.29096153.67735443-.6570099.67735443-.57253718 0-1.0324441.4838246-1.0324441 1.06441411s.46929277 1.06441411 1.0324441 1.06441411c.36604837 0 .6570099.29997125.6570099.67735443v2.23526964c0 .37738318-.29096153.67735443-.6570099.67735443-.04692927 0-.09385855-.0096765-.14078783-.01935298h-2.01795894c-.36604837 0-.6570099-.29997125-.6570099-.67735444 0-.590266-.46929277-1.0644141-1.0324441-1.0644141-.5725372 0-1.03244412.48382459-1.03244412 1.0644141 0 .37738319-.29096152.67735444-.65700989.67735444h-2.16813264c-.36604836 0-.65700989-.29997125-.65700989-.67735444 0-.590266-.46929277-1.0644141-1.0324441-1.0644141-.5725372 0-1.03244412.48382459-1.03244412 1.0644141 0 .37738319-.29096152.67735444-.65700989.67735444h-2.16813264c-.36604836 0-.65700989-.29997125-.65700989-.67735444 0-.590266-.46929277-1.0644141-1.0324441-1.0644141-.5725372 0-1.03244412.48382459-1.03244412 1.0644141 0 .37738319-.29096152.67735444-.6570099.67735444H17.2793601c-.36604836 0-.65700989-.29997125-.65700989-.67735444 0-.590266-.46929278-1.0644141-1.03244411-1.0644141-.57253719 0-1.03244411.48382459-1.03244411 1.0644141 0 .37738319-.29096153.67735444-.6570099.67735444h-2.16813263c-.36604837 0-.65700989-.29997125-.65700989-.67735444 0-.590266-.46929278-1.0644141-1.03244411-1.0644141-.5725372 0-1.03244411.48382459-1.03244411 1.0644141 0 .37738319-.29096153.67735444-.6570099.67735444H6.19466469c-.36604837 0-.6570099-.29997125-.6570099-.67735444 0-.590266-.46929277-1.0644141-1.0324441-1.0644141-.56315134 0-1.03244412.48382459-1.03244412 1.0644141 0 .3677067-.29096152.67735444-.65700989.67735444l-2.15874678.07741193z"/>
      </g>
      <g>
        <path fill="rgb(255,255,255)" fill-rule="evenodd" d="M23.46463892 35.09663617c-5.76291532 0-10.4558431-4.83824596-10.4558431-10.779612 0-5.94136603 4.69292778-10.7699355 10.4558431-10.7699355 3.01285964 0 5.87554559 1.3353559 7.85596111 3.67706693.2346464.28061827.21587468.70638391-.05631513.9579727-.27218981.2419123-.68516746.22255932-.9291997-.05805895-1.72699743-2.06109278-4.23302086-3.2222718-6.87044628-3.2222718-5.04020444 0-9.14182332 4.22862696-9.14182332 9.42490312s4.10161888 9.42490312 9.14182332 9.42490312c1.88655697 0 3.6980271-.590266 5.23730741-1.70306258.30034738-.21288282.70393917-.14514737.91981385.16450037.20648882.30964774.14078783.72573689-.15955955.9482962-1.76454085 1.25794395-3.83881493 1.93529839-5.9975617 1.93529839z"/>
        <path fill="rgb(255,255,255)" fill-rule="evenodd" d="M32.99128232 27.37479562c-.04692927 0-.1032444-.0096765-.15955954-.01935298-.35666251-.08708843-.57253719-.45479512-.48806449-.81282532.1689454-.7257369.2534181-1.47082677.2534181-2.22559314 0-.37738319.29096152-.67735444.6570099-.67735444.36604836 0 .65700988.29997125.65700988.67735444 0 .86120778-.09385856 1.71273906-.29096152 2.54491737-.065701.30964774-.3378908.51285407-.62885233.51285407z"/>
        <path fill="rgb(255,255,255)" fill-rule="evenodd" d="M32.91619548 22.33334333c-.29096152 0-.55376548-.19352983-.63823818-.50317758-.14078783-.55156003-.3378908-1.08376709-.57253719-1.59662116-.15955954-.33867722-.0187717-.74508988.30973324-.89991375.32850494-.16450036.72271087-.01935298.87288456.31932423.27218981.59026601.49745035 1.199885.6570099 1.82885698.09385855.3580302-.11263027.73541338-.45990693.8321783-.04692928.01935298-.11263027.01935298-.1689454.01935298z"/>
        <path fill="rgb(255,255,255)" fill-rule="evenodd" d="M40.47180921 21.12378185c-1.51112274 0-2.2807629-.64832496-2.96593036-1.22891448-.6100806-.51285407-1.08875924-.91926673-2.13058921-.91926673-1.04182997 0-1.5205086.40641266-2.13058922.91926673-.68516745.57091303-1.4548076 1.22891448-2.96593035 1.22891448-1.51112275 0-2.2807629-.64832496-2.96593036-1.22891448-.61008062-.51285407-1.08875925-.91926673-2.13058922-.91926673-.36604837 0-.65700989-.29997125-.65700989-.67735443 0-.37738319.29096152-.67735444.6570099-.67735444 1.51112274 0 2.2807629.64832496 2.96593035 1.22891448.61008061.51285407 1.08875925.91926673 2.13058922.91926673 1.04182996 0 1.5205086-.40641266 2.1305892-.91926673.68516747-.57091303 1.45480762-1.22891448 2.96593037-1.22891448 1.51112275 0 2.2807629.64832496 2.96593036 1.22891448.61008061.51285407 1.08875924.91926673 2.13058921.91926673 1.04182997 0 1.5205086-.40641266 2.13058922-.91926673.68516745-.57091303 1.45480761-1.22891448 2.96593036-1.22891448.36604836 0 .65700989.29997125.65700989.67735444 0 .37738318-.29096153.67735443-.6570099.67735443-1.04182996 0-1.5205086.40641266-2.1305892.91926673-.68516746.58058952-1.45480762 1.22891448-2.96593037 1.22891448z"/>
        <path fill="rgb(255,255,255)" fill-rule="evenodd" d="M40.47180921 26.06846921c-1.51112274 0-2.2807629-.64832496-2.96593036-1.22891447-.6100806-.51285407-1.08875924-.91926673-2.13058921-.91926673-1.04182997 0-1.5205086.40641266-2.13058922.91926673-.68516745.57091302-1.4548076 1.22891447-2.96593035 1.22891447-1.51112275 0-2.2807629-.64832496-2.96593036-1.22891447-.61008062-.51285407-1.08875925-.91926673-2.13058922-.91926673-.36604837 0-.65700989-.29997125-.65700989-.67735444 0-.37738318.29096152-.67735443.6570099-.67735443 1.51112274 0 2.2807629.64832496 2.96593035 1.22891447.61008061.51285407 1.08875925.91926673 2.13058922.91926673 1.04182996 0 1.5205086-.40641266 2.1305892-.91926673.68516747-.57091302 1.45480762-1.22891447 2.96593037-1.22891447 1.51112275 0 2.2807629.64832496 2.96593036 1.22891447.61008061.51285407 1.08875924.91926673 2.13058921.91926673 1.04182997 0 1.5205086-.40641266 2.13058922-.91926673.68516745-.57091302 1.45480761-1.22891447 2.96593036-1.22891447.36604836 0 .65700989.29997125.65700989.67735443 0 .37738319-.29096153.67735444-.6570099.67735444-1.04182996 0-1.5205086.40641266-2.1305892.91926673-.68516746.58058951-1.45480762 1.22891447-2.96593037 1.22891447z"/>
        <path fill="rgb(255,255,255)" fill-rule="evenodd" d="M40.47180921 31.00348009c-1.51112274 0-2.2807629-.64832496-2.96593036-1.22891448-.6100806-.51285407-1.08875924-.91926673-2.13058921-.91926673-1.04182997 0-1.5205086.40641266-2.13058922.91926673-.68516745.57091303-1.4548076 1.22891448-2.96593035 1.22891448-1.51112275 0-2.2807629-.64832496-2.96593036-1.22891448-.61008062-.51285407-1.08875925-.91926673-2.13058922-.91926673-.36604837 0-.65700989-.29997125-.65700989-.67735443 0-.37738319.29096152-.67735443.6570099-.67735443 1.51112274 0 2.2807629.64832495 2.96593035 1.22891447.61008061.51285407 1.08875925.91926673 2.13058922.91926673 1.04182996 0 1.5205086-.40641266 2.1305892-.91926673.68516747-.57091302 1.45480762-1.22891447 2.96593037-1.22891447 1.51112275 0 2.2807629.64832495 2.96593036 1.22891447.61008061.51285407 1.08875924.91926673 2.13058921.91926673 1.04182997 0 1.5205086-.40641266 2.13058922-.91926673.68516745-.57091302 1.45480761-1.22891447 2.96593036-1.22891447.36604836 0 .65700989.29997124.65700989.67735443 0 .37738318-.29096153.67735443-.6570099.67735443-1.04182996 0-1.5205086.40641266-2.1305892.91926673-.68516746.58058952-1.45480762 1.22891448-2.96593037 1.22891448z"/>
      </g>
    </g>
  </g>
</svg>
