<svg xmlns="http://www.w3.org/2000/svg" xmlns:xlink="http://www.w3.org/1999/xlink" width="38.549" height="47.691" viewBox="0 0 38.549 47.691">
  <defs>
    <rect id="rect-1" width="38.549" height="47.691" x="0" y="0"/>
    <mask id="mask-2" maskContentUnits="userSpaceOnUse" maskUnits="userSpaceOnUse">
      <rect width="38.549" height="47.691" x="0" y="0" fill="black"/>
      <use fill="white" xlink:href="#rect-1"/>
    </mask>
  </defs>
  <g>
    <use fill="none" xlink:href="#rect-1"/>
    <g mask="url(#mask-2)">
      <path fill="rgb(255,255,255)" fill-rule="evenodd" d="M35.65781232 7.94853386c-.53004856 0-.96372466-.44710503-.96372466-.99356673V1.98713347H3.85489863v4.96783366c0 .5464617-.4336761.99356673-.96372466.99356673s-.96372466-.44710503-.96372466-.99356673V.99356673C1.92744931.44710503 2.36112541 0 2.89117397 0h32.76663835c.53004856 0 .96372466.44710503.96372466.99356673v5.9614004c0 .5464617-.4336761.99356673-.96372466.99356673z"/>
      <path fill="rgb(255,255,255)" fill-rule="evenodd" d="M35.65781232 47.69120317H2.89117397c-.53004856 0-.96372466-.44710503-.96372466-.99356673V10.92923406c0-.5464617.4336761-.99356673.96372466-.99356673s.96372466.44710503.96372466.99356673v34.77483565h30.83918903V10.92923406c0-.5464617.4336761-.99356673.96372466-.99356673s.96372466.44710503.96372466.99356673v35.76840238c0 .5464617-.4336761.99356673-.96372466.99356673z"/>
      <path fill="rgb(255,255,255)" fill-rule="evenodd" d="M2.89111518 11.9228619h32.76672364c1.59008789 0 2.89111328-1.3413086 2.89111328-2.9807129 0-1.6394043-1.3010254-2.98071289-2.89111328-2.98071289H2.89111518c-1.59008789 0-2.89111328 1.3413086-2.89111328 2.98071289 0 1.6394043 1.3010254 2.9807129 2.89111328 2.9807129zm-.96362304-2.98083497c0-.54638672.43371582-.99353027.96374511-.99353027h32.76660157c.5300293 0 .96374511.44714355.96374511.99353027 0 .54650879-.43371582.99365234-.96374511.99365234H2.89123725c-.5300293 0-.96374511-.44714355-.96374511-.99365234z"/>
    </g>
  </g>
</svg>
